<?xml version="1.0" encoding="utf-8"?> <!-- Generator: IcoMoon.io --> <!DOCTYPE svg PUBLIC "-//W3C//DTD SVG 1.1//EN" "http://www.w3.org/Graphics/SVG/1.1/DTD/svg11.dtd"> <svg version="1.1" id="Layer_1" xmlns="http://www.w3.org/2000/svg" xmlns:xlink="http://www.w3.org/1999/xlink" x="0px" y="0px" width="80px" height="80px" viewBox="0 0 80 80" enable-background="new 0 0 80 80" xml:space="preserve" fill="#423e3b"> <path d="M42.505,49.916c0-0.277-0.224-0.5-0.5-0.5h-4c-0.276,0-0.5,0.223-0.5,0.5v7c0,0.275,0.224,0.5,0.5,0.5h4 c0.276,0,0.5-0.225,0.5-0.5V49.916z M38.505,50.416h3v6h-3V50.416zM43.954,59.416h-8c-0.276,0-0.5,0.223-0.5,0.5c0,0.275,0.224,0.5,0.5,0.5h8c0.276,0,0.5-0.225,0.5-0.5 C44.454,59.639,44.23,59.416,43.954,59.416zM46.505,36.916c0-0.277-0.224-0.5-0.5-0.5h-12c-0.276,0-0.5,0.223-0.5,0.5v4c0,0.275,0.224,0.5,0.5,0.5h12 c0.276,0,0.5-0.225,0.5-0.5V36.916z M42.505,37.416h3v3h-3V37.416z M38.505,37.416h3v3h-3V37.416z M34.505,37.416h3v3h-3V37.416zM52.505,20.748V4.916c0-0.277-0.274-0.5-0.551-0.5h-12c-0.276,0-0.449,0.223-0.449,0.5v12.99 c-15.5,0.277-28.354,13.1-28.354,28.832c0,15.906,12.928,28.846,28.833,28.846c15.906,0,28.866-12.939,28.866-28.846 C68.85,35.303,62.005,25.412,52.505,20.748z M52.462,41.416l-0.811-2h15.186c0.18,0.656,0.336,1.324,0.467,2H52.462z M65.505,42.416v8h-3v-8H65.505z M61.505,42.416v8h-3v-8H61.505z M57.505,42.416v8h-3v-8H57.505z M50.576,69.416l0.667,2h-8.738v-2 H50.576z M42.505,68.416v-2h8.071l0.667,2H42.505z M50.735,72.416c-2.586,1.088-5.23,1.793-8.23,2.053v-2.053H50.735z M28.63,65.416l0.667-2h21.279l0.667,2H28.63z M37.505,72.416v2.049c-3-0.262-5.724-0.965-8.3-2.049H37.505z M28.63,71.416l0.667-2 h8.208v2H28.63z M37.505,68.416H28.63l0.667-2h8.208V68.416z M26.59,62.416l2.763-15h21.168l2.763,15H26.59z M31.505,46.416v-2h17 v2H31.505z M51.429,46.824c-0.044-0.236-0.251-0.408-0.492-0.408h-1.432v-2h3.432c0.003-0.002,0.007-0.002,0.01,0 c0.276,0,0.5-0.225,0.5-0.5c0-0.102-0.029-0.195-0.081-0.273l-0.497-1.227h0.637v8H52.09L51.429,46.824z M66.505,42.416h0.975 c0.221,1.408,0.338,2.852,0.338,4.322c0,1.246-0.088,2.473-0.248,3.678h-1.064V42.416z M43.505,5.416h8v3h-8V5.416z M43.505,9.416 h8v3h-8V9.416z M43.505,13.416h8v3h-8V13.416z M43.505,17.416h8v3h-8V17.416z M43.505,21.416h8v3h-8V21.416z M43.505,25.416h8v3h-8 V25.416z M43.505,29.416h8.449c0.276,0,0.551-0.225,0.551-0.5v-7.061c6.5,3.363,11.769,9.33,14.038,16.561H51.245l-1.846-4.551 c-0.053-0.131-0.131-0.232-0.263-0.281l-5.632-2.111V29.416z M40.505,5.416h2V31.1l-2-0.748V5.416z M48.556,34.445l3.639,8.971 H27.679l3.639-8.971l8.619-3.219L48.556,34.445z M14.117,36.416h15.321l-0.811,2H13.396C13.609,37.736,13.854,37.07,14.117,36.416z M21.505,27.416v8h-3v-6.332c0.5-0.578,0.926-1.131,1.443-1.668H21.505z M14.54,35.416c0.798-1.785,1.965-3.471,2.965-5.033v5.033 h-2.963H14.54z M22.505,35.416v-8h3v8H22.505z M26.505,35.416v-8h3v8H26.505z M39.505,30.34l-8.718,3.244 c-0.132,0.049-0.224,0.15-0.276,0.281l-0.006,0.047v-6.996c0-0.277-0.274-0.5-0.551-0.5h-8.99 c4.862-4.551,11.541-7.379,18.541-7.51V30.34z M17.472,57.859c0-0.441,0.121-0.873,0.347-1.254 c0.614,0.484,1.372,0.754,2.153,0.754s1.539-0.27,2.153-0.754c0.226,0.381,0.347,0.812,0.347,1.254c0,1.377-1.121,2.5-2.5,2.5 S17.472,59.236,17.472,57.859z M20.505,61.322c1.5-0.236,2.992-1.697,2.992-3.463c0-0.857-0.335-1.658-0.92-2.307 c-0.095-0.105-0.236-0.137-0.378-0.137h-0.003c-0.143,0-0.279,0.031-0.373,0.137c-0.484,0.537-1.143,0.82-1.851,0.82 s-1.365-0.303-1.851-0.842c-0.189-0.211-0.554-0.215-0.743-0.004c-0.585,0.648-0.882,1.477-0.882,2.334 c0,1.752,1.508,3.203,3.008,3.455v4.225c-4.5-4.957-7.354-11.561-7.354-18.803c0-2.535,0.321-4.988,0.958-7.322h15.113 l-1.748,4.311c-0.062,0.154-0.045,0.33,0.048,0.469c0.093,0.137,0.249,0.221,0.415,0.221h3.568v2h-1.568 c-0.241,0-0.448,0.172-0.492,0.408l-2.947,16c-0.026,0.146,0.013,0.297,0.107,0.41c0.096,0.115,0.236,0.182,0.385,0.182h2.254 l-0.781,2.342c-0.051,0.152-0.025,0.32,0.069,0.449c0.094,0.131,0.245,0.209,0.405,0.209h0.307l-0.781,2.342 c-0.051,0.152-0.025,0.32,0.069,0.449c0.094,0.131,0.245,0.209,0.405,0.209h0.307l-0.711,2.207 c-2.609-1.312-5.027-3.018-7.027-5.049V61.322z M38.505,74.541v-8.125h3v8.127c-0.5,0.027-0.985,0.041-1.482,0.041 C39.513,74.584,39.005,74.568,38.505,74.541z M59.972,60.359c-1.379,0-2.5-1.123-2.5-2.5c0-0.441,0.121-0.873,0.347-1.254 c0.614,0.484,1.372,0.754,2.153,0.754s1.539-0.27,2.153-0.754c0.226,0.381,0.347,0.812,0.347,1.254 C62.472,59.236,61.351,60.359,59.972,60.359z M60.505,61.322c1.5-0.236,2.992-1.697,2.992-3.463c0-0.857-0.335-1.658-0.92-2.307 c-0.095-0.105-0.236-0.137-0.378-0.137h-0.003c-0.143,0-0.279,0.031-0.373,0.137c-0.484,0.537-1.143,0.82-1.851,0.82 s-1.365-0.303-1.851-0.842c-0.189-0.211-0.554-0.215-0.743-0.004c-0.585,0.648-0.882,1.477-0.882,2.334 c0,1.752,1.508,3.203,3.008,3.455v5.291c-2,2.031-4.484,3.736-7.104,5.047l-0.771-2.238h0.307c0.004,0,0.007-0.002,0.01,0 c0.276,0,0.5-0.225,0.5-0.5c0-0.09-0.023-0.176-0.065-0.248l-0.751-2.252h0.307c0.004,0,0.007,0,0.01,0c0.276,0,0.5-0.225,0.5-0.5 c0-0.09-0.023-0.176-0.065-0.248l-0.751-2.252h2.254c0.148,0,0.289-0.066,0.385-0.182c0.095-0.113,0.134-0.264,0.107-0.41 l-2.102-11.408h15.143c-0.92,5.406-3.412,10.289-6.912,14.162V61.322z" ></path> </svg>