<?xml version="1.0" encoding="utf-8"?> <!-- Generator: IcoMoon.io --> <!DOCTYPE svg PUBLIC "-//W3C//DTD SVG 1.1//EN" "http://www.w3.org/Graphics/SVG/1.1/DTD/svg11.dtd"> <svg version="1.1" id="Layer_1" xmlns="http://www.w3.org/2000/svg" xmlns:xlink="http://www.w3.org/1999/xlink" x="0px" y="0px" width="80px" height="80px" viewBox="0 0 80 80" enable-background="new 0 0 80 80" xml:space="preserve" fill="#423e3b"> <path d="M50.455,19.869l-0.001-2.444h1.5c0.226,0,0.423-0.156,0.482-0.374s-0.035-0.45-0.229-0.564l-9.896-5.801 c0.116-0.295,0.194-0.615,0.194-0.934c0-1.217-1-2.232-2-2.459V4.916c0-0.276-0.224-0.5-0.5-0.5s-0.5,0.224-0.5,0.5V7.3 c-1.5,0.239-2,1.242-2,2.441c0,0.311,0.05,0.623,0.158,0.911l-9.959,5.832c-0.194,0.114-0.291,0.349-0.231,0.567 s0.255,0.374,0.48,0.374h1.552v2.46c-11,4.213-18.347,14.659-18.347,26.852c0,15.906,12.933,28.848,28.838,28.848 c15.906,0,28.843-12.938,28.843-28.844C68.84,34.526,61.2,24.068,50.455,19.869z M62.35,40.668 c-0.248-0.436-0.396-1.027-0.396-1.586c0-1.908,1.542-3.459,3.438-3.459c0.02,0,0.074,0.012,0.129,0.02 c1.319,3.02,2.117,6.281,2.28,9.781h-9.347c-1.103,0-2-0.896-2-2c0-1.102,0.897-2,2-2h3.461c0.179,0,0.343-0.1,0.433-0.254 C62.438,41.018,62.438,40.823,62.35,40.668z M24.946,57.424h3.508c1.103,0,2,0.896,2,2s-0.897,2-2,2H16.34 c-1.49-2-2.63-5.027-3.342-7.828c0.466-1.074,1.502-1.816,2.706-1.816c0.072,0,0.143-0.008,0.213-0.016 c0.033-0.004,0.062-0.008,0.107-0.008c0.188,0.018,0.37-0.068,0.472-0.229c0.958-1.494,2.57-2.422,4.208-2.422 c2.851,0,5,2.051,5,4.77c0,1.467-0.531,2.541-0.758,2.541c-0.275,0-0.5,0.227-0.5,0.504C24.446,57.195,24.671,57.424,24.946,57.424z M33.006,23.416c0.276,0,0.5-0.225,0.5-0.5v-5.491h3v13.491c0,0.275,0.224,0.5,0.5,0.5s0.5-0.225,0.5-0.5V17.425h5v4.491 c0,0.275,0.224,0.5,0.5,0.5s0.5-0.225,0.5-0.5v-4.491h3v7.491c0,0.275,0.224,0.5,0.5,0.5s0.5-0.225,0.5-0.5v-7.491h1.948l0.006,17 H30.506v-17h2v5.491C32.506,23.191,32.729,23.416,33.006,23.416z M40.506,53.424V51.23c1.5-0.086,3.5-0.641,5-1.553v3.746H40.506z M45.506,54.424v2h-5v-2H45.506z M39.967,50.26c-5.007,0-9.102-3.836-9.452-8.836h1.991v1.492c0,0.275,0.224,0.5,0.5,0.5 s0.5-0.225,0.5-0.5v-1.492h3v3.492c0,0.275,0.224,0.5,0.5,0.5s0.5-0.225,0.5-0.5v-3.492h5v2.492c0,0.275,0.224,0.5,0.5,0.5 s0.5-0.225,0.5-0.5v-2.492h5.916C49.085,46.424,44.982,50.26,39.967,50.26z M39.506,54.424v2h-5v-2H39.506z M34.506,53.424v-3.742 c1.5,0.91,3,1.463,5,1.551v2.191H34.506z M35.104,40.424l4.85-4.85l4.85,4.85H35.104z M38.69,35.424l-4.736,4.736l-4.736-4.736 H38.69z M32.804,40.424h-4.298v-4.34L32.804,40.424z M33.506,48.973v7.941c0,0.277,0.189,0.51,0.466,0.51h5.534v7H28.314 l0.183-2.006c1.635-0.023,2.957-1.361,2.957-3c0-1.455-1.04-2.672-2.416-2.943l1.12-12.098 C30.83,46.201,32.006,47.785,33.506,48.973z M28.184,65.85l8.563,8.539c-3.232-0.377-6.296-1.307-9.096-2.697L28.184,65.85z M38.299,74.527c-0.014-0.02-0.029-0.035-0.046-0.053l-9.089-9.051h10.342v9.146C39.006,74.562,38.693,74.551,38.299,74.527z M40.506,65.424h10.24l-9.114,9.113c-0.379,0.021-1.126,0.027-1.126,0.035V65.424z M43.166,74.396l8.557-8.543l0.534,5.875 C49.458,73.107,46.396,74.029,43.166,74.396z M40.506,64.424v-7h5.466c0.276,0,0.534-0.232,0.534-0.51v-7.941 c1.5-1.176,2.61-2.73,3.284-4.525l1.801,19.977H40.506z M47.104,40.424l4.401-4.375v4.375H47.104z M45.954,40.161l-4.736-4.736 h9.473L45.954,40.161z M39.989,8.245c0.827,0,1.5,0.681,1.5,1.512c0,0.229-0.053,0.668-0.15,0.668h-2.696 c-0.098,0-0.153-0.447-0.153-0.679C38.489,8.921,39.162,8.245,39.989,8.245z M38.331,11.425h3.25l8.531,5H29.797L38.331,11.425z M29.506,20.968v13.457h-1.534c-0.276,0-0.466,0.215-0.466,0.492v6c0,0.275,0.189,0.507,0.466,0.507h1.435l-1.365,15h-1.847 c0.359-0.5,0.51-1.775,0.51-2.545c0-3.234-2.636-5.771-6-5.771c-1.893,0-3.749,1.014-4.904,2.664 c-0.031,0.002-0.063,0.006-0.096,0.006c-1.204,0-2.288,0.551-3.021,1.424c-0.353-1.768-0.524-3.594-0.524-5.465 C12.159,35.106,19.006,25.127,29.506,20.968z M16.989,62.424h10.506l-0.799,8.785C22.807,69.088,19.479,66.424,16.989,62.424z M53.215,71.242l-2.713-29.818h1.47c0.276,0,0.534-0.232,0.534-0.507v-6c0-0.277-0.258-0.492-0.534-0.492H50.46l-0.005-13.473 c6.394,2.604,11.609,7.512,14.606,13.692c-2.293,0.17-4.107,2.098-4.107,4.445c0,0.449,0.072,1.336,0.205,1.336h-2.705 c-1.654,0-3,1.345-3,3s1.346,3,3,3h9.375c0.001,0.5,0.006,0.213,0.006,0.32C67.835,57.314,61.914,66.525,53.215,71.242z" ></path></svg>