<?xml version="1.0" encoding="utf-8"?> <!-- Generator: IcoMoon.io --> <!DOCTYPE svg PUBLIC "-//W3C//DTD SVG 1.1//EN" "http://www.w3.org/Graphics/SVG/1.1/DTD/svg11.dtd"> <svg version="1.1" id="Layer_1" xmlns="http://www.w3.org/2000/svg" xmlns:xlink="http://www.w3.org/1999/xlink" x="0px" y="0px" width="80px" height="80px" viewBox="0 0 80 80" enable-background="new 0 0 80 80" xml:space="preserve" fill="#423e3b"> <path d="M49.982,48.439c-0.276,0-0.5-0.223-0.5-0.5V34.938c0-0.275,0.224-0.5,0.5-0.5s0.5,0.225,0.5,0.5v13.001 C50.482,48.217,50.259,48.439,49.982,48.439zM29.982,48.439c-0.276,0-0.5-0.223-0.5-0.5V34.938c0-0.275,0.224-0.5,0.5-0.5s0.5,0.225,0.5,0.5v13.001 C30.482,48.217,30.259,48.439,29.982,48.439zM49.982,55.439c-0.276,0-0.5-0.223-0.5-0.5v-4c0-0.275,0.224-0.5,0.5-0.5s0.5,0.225,0.5,0.5v4 C50.482,55.217,50.259,55.439,49.982,55.439zM60.967,33.384c-0.135,0-0.26-0.055-0.354-0.145c-0.095-0.096-0.146-0.225-0.146-0.355 c0-0.135,0.051-0.266,0.146-0.355c0.185-0.184,0.52-0.184,0.705,0c0.095,0.09,0.145,0.221,0.145,0.355 c0,0.131-0.05,0.26-0.145,0.35C61.223,33.329,61.098,33.384,60.967,33.384zM60.967,36.384c-0.135,0-0.265-0.055-0.354-0.15c-0.095-0.09-0.146-0.219-0.146-0.35 c0-0.135,0.051-0.266,0.146-0.355c0.18-0.184,0.52-0.184,0.705,0c0.095,0.09,0.149,0.221,0.149,0.355 c0,0.131-0.055,0.26-0.149,0.35C61.223,36.329,61.098,36.384,60.967,36.384zM60.967,39.384c-0.135,0-0.265-0.055-0.354-0.15c-0.095-0.09-0.15-0.219-0.15-0.35 c0-0.135,0.056-0.266,0.15-0.355c0.185-0.184,0.515-0.184,0.705,0c0.095,0.09,0.149,0.221,0.149,0.355 c0,0.131-0.055,0.26-0.149,0.35C61.223,39.329,61.098,39.384,60.967,39.384zM49.962,26.384c-0.13,0-0.26-0.055-0.35-0.15c-0.095-0.09-0.15-0.219-0.15-0.35 c0-0.135,0.056-0.26,0.15-0.355c0.185-0.184,0.52-0.184,0.705,0c0.095,0.09,0.145,0.221,0.145,0.355c0,0.131-0.05,0.26-0.145,0.35 C50.228,26.329,50.098,26.384,49.962,26.384zM49.962,29.384c-0.13,0-0.255-0.055-0.35-0.145c-0.095-0.096-0.146-0.225-0.146-0.355 c0-0.135,0.051-0.26,0.146-0.355c0.185-0.184,0.52-0.184,0.705,0c0.095,0.096,0.149,0.227,0.149,0.355 c0,0.131-0.055,0.26-0.149,0.35C50.223,29.329,50.098,29.384,49.962,29.384zM29.962,26.384c-0.13,0-0.26-0.055-0.35-0.15c-0.095-0.09-0.15-0.219-0.15-0.35 c0-0.135,0.056-0.266,0.15-0.355c0.185-0.184,0.52-0.184,0.705,0c0.095,0.09,0.145,0.221,0.145,0.355c0,0.131-0.05,0.26-0.145,0.35 C30.228,26.329,30.098,26.384,29.962,26.384zM49.967,23.384c-0.135,0-0.265-0.055-0.354-0.145c-0.095-0.095-0.146-0.225-0.146-0.355 c0-0.135,0.051-0.265,0.146-0.354c0.18-0.185,0.52-0.185,0.705,0c0.095,0.095,0.149,0.22,0.149,0.354 c0,0.131-0.055,0.261-0.149,0.351C50.223,23.329,50.098,23.384,49.967,23.384zM29.967,23.384c-0.135,0-0.265-0.055-0.354-0.145c-0.095-0.095-0.146-0.225-0.146-0.355 c0-0.135,0.051-0.265,0.146-0.354c0.18-0.185,0.52-0.185,0.705,0c0.095,0.09,0.149,0.22,0.149,0.354 c0,0.131-0.055,0.261-0.149,0.351C30.223,23.329,30.098,23.384,29.967,23.384zM29.967,29.384c-0.135,0-0.26-0.055-0.354-0.145c-0.095-0.096-0.15-0.225-0.15-0.355 c0-0.135,0.056-0.26,0.15-0.355c0.185-0.184,0.525-0.184,0.705,0c0.095,0.09,0.145,0.221,0.145,0.355c0,0.131-0.05,0.26-0.145,0.35 C30.228,29.329,30.098,29.384,29.967,29.384zM29.967,32.384c-0.135,0-0.265-0.055-0.354-0.15c-0.095-0.09-0.146-0.219-0.146-0.35 c0-0.135,0.051-0.266,0.146-0.355c0.185-0.184,0.52-0.184,0.705,0c0.095,0.09,0.145,0.221,0.145,0.355 c0,0.131-0.05,0.26-0.145,0.35C30.228,32.329,30.098,32.384,29.967,32.384zM18.962,34.384c-0.13,0-0.26-0.055-0.35-0.15c-0.095-0.09-0.146-0.219-0.146-0.35 c0-0.135,0.051-0.266,0.146-0.355c0.18-0.184,0.525-0.184,0.705,0c0.095,0.09,0.145,0.221,0.145,0.355 c0,0.131-0.05,0.26-0.145,0.35C19.228,34.329,19.098,34.384,18.962,34.384zM60.967,30.384c-0.135,0-0.26-0.055-0.354-0.145c-0.095-0.096-0.15-0.225-0.15-0.355 c0-0.135,0.056-0.266,0.15-0.355c0.185-0.184,0.515-0.184,0.705,0c0.095,0.09,0.145,0.221,0.145,0.355 c0,0.131-0.05,0.26-0.145,0.35C61.223,30.329,61.098,30.384,60.967,30.384zM18.967,31.384c-0.135,0-0.26-0.055-0.354-0.145c-0.095-0.096-0.15-0.225-0.15-0.355 c0-0.135,0.056-0.266,0.15-0.355c0.185-0.184,0.515-0.184,0.705,0c0.095,0.09,0.149,0.221,0.149,0.355 c0,0.131-0.055,0.26-0.149,0.35C19.223,31.329,19.098,31.384,18.967,31.384zM18.962,37.384c-0.13,0-0.255-0.055-0.35-0.145c-0.095-0.096-0.15-0.225-0.15-0.355 c0-0.135,0.056-0.266,0.15-0.355c0.189-0.184,0.52-0.184,0.705,0c0.095,0.09,0.145,0.221,0.145,0.355c0,0.131-0.05,0.26-0.145,0.35 C19.228,37.329,19.098,37.384,18.962,37.384zM18.962,40.384c-0.13,0-0.255-0.055-0.35-0.145c-0.095-0.1-0.146-0.225-0.146-0.355 c0-0.135,0.051-0.266,0.146-0.355c0.185-0.189,0.525-0.184,0.705,0c0.095,0.09,0.145,0.221,0.145,0.355 c0,0.131-0.05,0.26-0.145,0.35C19.228,40.329,19.098,40.384,18.962,40.384zM26.612,7.529c-0.095,0.09-0.15,0.22-0.15,0.355c0,0.13,0.056,0.26,0.15,0.35 c0.09,0.095,0.22,0.15,0.354,0.15c0.131,0,0.256-0.055,0.351-0.15c0.095-0.09,0.145-0.22,0.145-0.35 c0-0.135-0.05-0.265-0.145-0.355C27.132,7.344,26.792,7.344,26.612,7.529zM33.317,7.529c-0.186-0.185-0.521-0.185-0.705,0c-0.095,0.09-0.146,0.22-0.146,0.355 c0,0.13,0.051,0.26,0.146,0.35c0.09,0.095,0.22,0.15,0.35,0.15c0.136,0,0.261-0.055,0.355-0.15c0.095-0.09,0.149-0.22,0.149-0.35 C33.467,7.75,33.412,7.619,33.317,7.529zM46.612,7.529c-0.095,0.09-0.146,0.22-0.146,0.355c0,0.13,0.051,0.26,0.146,0.35 c0.09,0.095,0.22,0.15,0.354,0.15c0.131,0,0.261-0.055,0.351-0.15c0.095-0.09,0.145-0.22,0.145-0.35 c0-0.135-0.05-0.265-0.145-0.355C47.132,7.344,46.797,7.344,46.612,7.529zM15.612,15.529c-0.095,0.09-0.146,0.22-0.146,0.355c0,0.13,0.051,0.26,0.146,0.35 c0.095,0.095,0.22,0.15,0.35,0.15c0.136,0,0.266-0.055,0.355-0.15c0.095-0.09,0.145-0.22,0.145-0.35c0-0.135-0.05-0.26-0.145-0.355 C16.132,15.344,15.797,15.344,15.612,15.529zM49.962,32.384c-0.13,0-0.26-0.055-0.35-0.15c-0.095-0.09-0.15-0.219-0.15-0.35 c0-0.135,0.056-0.266,0.15-0.355c0.185-0.184,0.52-0.184,0.705,0c0.095,0.09,0.149,0.221,0.149,0.355 c0,0.131-0.055,0.26-0.149,0.35C50.228,32.329,50.098,32.384,49.962,32.384zM39.967,45.384c-0.135,0-0.265-0.055-0.354-0.15c-0.095-0.094-0.146-0.219-0.146-0.35 c0-0.135,0.051-0.26,0.146-0.355c0.189-0.184,0.52-0.184,0.705,0c0.095,0.09,0.145,0.221,0.145,0.355c0,0.131-0.05,0.26-0.145,0.35 C40.228,45.329,40.098,45.384,39.967,45.384zM29.982,55.439c-0.276,0-0.5-0.223-0.5-0.5v-4c0-0.275,0.224-0.5,0.5-0.5s0.5,0.225,0.5,0.5v4 C30.482,55.217,30.259,55.439,29.982,55.439zM63.921,30.673c-0.935-6.064-1.85-7.691-2.438-8.128v-2.097h0.5c0.276,0,0.5-0.223,0.5-0.5 c0-0.275-0.224-0.5-0.5-0.5h-0.5v-1.121c1.128-0.239,1.978-1.239,1.981-2.436c0.002,0.127,0.056,0.255,0.148,0.343 c0.09,0.095,0.22,0.15,0.354,0.15c0.131,0,0.256-0.055,0.351-0.15c0.095-0.09,0.145-0.22,0.145-0.35c0-0.135-0.05-0.26-0.145-0.355 c-0.186-0.185-0.521-0.185-0.705,0c-0.093,0.093-0.146,0.215-0.148,0.347c-0.004-1.373-1.12-2.489-2.493-2.493 c0.129-0.001,0.253-0.055,0.347-0.149c0.095-0.09,0.149-0.22,0.149-0.35c0-0.135-0.055-0.26-0.149-0.355 c-0.186-0.185-0.521-0.185-0.705,0c-0.095,0.09-0.146,0.22-0.146,0.355c0,0.13,0.051,0.26,0.146,0.35 c0.089,0.094,0.216,0.147,0.35,0.149c-1.375,0.001-2.492,1.119-2.496,2.493c-0.003-0.132-0.056-0.259-0.148-0.347 c-0.186-0.185-0.521-0.185-0.705,0c-0.095,0.095-0.15,0.225-0.15,0.355s0.056,0.26,0.15,0.35c0.095,0.095,0.22,0.15,0.35,0.15 c0.136,0,0.266-0.055,0.355-0.15c0.093-0.088,0.146-0.215,0.148-0.343c0.004,1.209,0.871,2.217,2.017,2.442v1.114h-0.5 c-0.276,0-0.5,0.225-0.5,0.5c0,0.277,0.224,0.5,0.5,0.5h0.5v2.097c-0.348,0.259-0.811,0.932-1.323,2.69 c-1.963-1.748-4.163-3.234-6.549-4.4c-0.823-4.546-1.604-5.889-2.128-6.285v-2.101h0.5c0.276,0,0.5-0.224,0.5-0.5 s-0.224-0.5-0.5-0.5h-0.5v-1.121c1.128-0.239,1.978-1.239,1.981-2.436c0.002,0.127,0.056,0.255,0.148,0.343 c0.095,0.095,0.22,0.15,0.354,0.15c0.131,0,0.256-0.055,0.351-0.145c0.095-0.095,0.145-0.225,0.145-0.355 c0-0.135-0.05-0.265-0.145-0.355c-0.186-0.185-0.521-0.185-0.705,0c-0.093,0.088-0.146,0.215-0.148,0.347 c-0.004-1.373-1.12-2.489-2.493-2.493c0.129-0.001,0.258-0.055,0.347-0.149c0.095-0.09,0.149-0.22,0.149-0.35 c0-0.135-0.055-0.26-0.149-0.355c-0.186-0.185-0.525-0.185-0.705,0c-0.095,0.095-0.15,0.22-0.15,0.355c0,0.13,0.056,0.26,0.15,0.35 c0.089,0.094,0.216,0.147,0.35,0.149c-1.377,0.001-2.497,1.122-2.497,2.5c0,1.213,0.869,2.226,2.018,2.451v1.115h-0.5 c-0.276,0-0.5,0.224-0.5,0.5s0.224,0.5,0.5,0.5h0.5v2.089c-0.445,0.323-1.081,1.323-1.772,4.436 c-2.456-0.683-5.04-1.058-7.711-1.058c-2.689,0-5.291,0.379-7.763,1.072c-0.681-3.084-1.31-4.099-1.754-4.436v-2.104h0.5 c0.276,0,0.5-0.224,0.5-0.5s-0.224-0.5-0.5-0.5h-0.5v-1.121c1.131-0.239,1.982-1.244,1.982-2.445c0-1.376-1.118-2.496-2.494-2.5 c0.129-0.001,0.258-0.055,0.347-0.149c0.095-0.09,0.149-0.22,0.149-0.35c0-0.135-0.055-0.26-0.149-0.355 c-0.186-0.185-0.525-0.185-0.705,0c-0.095,0.09-0.15,0.22-0.15,0.355c0,0.13,0.056,0.26,0.15,0.35 c0.089,0.094,0.216,0.147,0.35,0.149c-1.377,0.001-2.497,1.122-2.497,2.5c0,1.213,0.869,2.226,2.018,2.451v1.115h-0.5 c-0.276,0-0.5,0.224-0.5,0.5s0.224,0.5,0.5,0.5h0.5v2.088c-0.525,0.381-1.314,1.708-2.144,6.324 c-2.378,1.168-4.57,2.652-6.526,4.398c-0.516-1.775-0.98-2.454-1.33-2.714v-2.097h0.5c0.276,0,0.5-0.223,0.5-0.5 c0-0.275-0.224-0.5-0.5-0.5h-0.5v-1.121c1.128-0.239,1.978-1.239,1.981-2.436c0.002,0.127,0.056,0.255,0.148,0.343 c0.09,0.095,0.22,0.15,0.354,0.15c0.131,0,0.256-0.055,0.351-0.15c0.095-0.09,0.149-0.22,0.149-0.35 c0-0.135-0.055-0.26-0.149-0.355c-0.186-0.185-0.521-0.185-0.705,0c-0.093,0.093-0.146,0.215-0.148,0.347 c-0.004-1.373-1.12-2.489-2.493-2.493c0.129-0.001,0.253-0.055,0.347-0.149c0.095-0.09,0.149-0.22,0.149-0.35 c0-0.135-0.055-0.26-0.149-0.355c-0.186-0.185-0.521-0.185-0.705,0c-0.095,0.09-0.146,0.22-0.146,0.355 c0,0.13,0.051,0.26,0.146,0.35c0.089,0.094,0.216,0.147,0.35,0.149c-1.377,0.001-2.497,1.122-2.497,2.5 c0,1.213,0.869,2.226,2.018,2.451v1.114h-0.5c-0.276,0-0.5,0.225-0.5,0.5c0,0.277,0.224,0.5,0.5,0.5h0.5v2.097 c-0.591,0.438-1.512,2.075-2.45,8.198c-3.077,4.584-4.879,10.094-4.879,16.019c0,15.906,12.94,28.848,28.846,28.848 c15.906,0,28.847-12.941,28.847-28.848C68.846,40.806,67.027,35.271,63.921,30.673z M59.465,15.883c0-0.827,0.673-1.5,1.5-1.5 s1.5,0.673,1.5,1.5s-0.673,1.5-1.5,1.5S59.465,16.71,59.465,15.883z M48.465,7.883c0-0.827,0.673-1.5,1.5-1.5s1.5,0.673,1.5,1.5 s-0.673,1.5-1.5,1.5S48.465,8.71,48.465,7.883z M39.999,18.916c2.602,0,5.116,0.368,7.506,1.038 c-0.213,1.077-0.43,2.358-0.646,3.893c-0.87,6.152-1.36,13.811-1.388,21.627l-1.972-0.395c-0.019-1.162-1.186-9.471-3.5-9.471 c-2.306,0-3.473,8.254-3.498,9.457l-2.037,0.408c-0.027-7.82-0.516-15.479-1.382-21.627c-0.215-1.529-0.43-2.807-0.642-3.881 C34.846,19.286,37.38,18.916,39.999,18.916z M42.499,45.108c0,1.379-1.121,2.501-2.5,2.501c-1.378,0-2.5-1.122-2.5-2.501 c0-3.23,1.827-8.5,2.5-8.5C40.673,36.608,42.499,41.878,42.499,45.108z M28.465,7.883c0-0.827,0.673-1.5,1.5-1.5s1.5,0.673,1.5,1.5 s-0.673,1.5-1.5,1.5S28.465,8.71,28.465,7.883z M17.465,15.883c0-0.827,0.673-1.5,1.5-1.5s1.5,0.673,1.5,1.5s-0.673,1.5-1.5,1.5 S17.465,16.71,17.465,15.883z M14.482,57.9c-1.496-3.414-2.329-7.18-2.329-11.139c0-4.919,1.286-9.54,3.534-13.556 c-0.779,6.092-1.205,13.47-1.205,20.958V57.9z M22.482,68.389c-1.068-0.867-2.071-1.811-3-2.824V42.938c0-0.275-0.224-0.5-0.5-0.5 s-0.5,0.225-0.5,0.5v21.47c-1.136-1.381-2.144-2.873-3-4.457v-5.787c0-17.269,2.259-29.657,3.5-30.746 c1.241,1.089,3.5,13.478,3.5,30.746V68.389z M25.482,70.516c-0.688-0.422-1.354-0.875-2-1.354V54.164 c0-8.044-0.491-15.962-1.384-22.292c-0.338-2.398-0.676-4.189-1-5.529c1.807-1.672,3.833-3.109,6.032-4.26 c-0.09,0.555-0.18,1.15-0.27,1.789c-0.889,6.328-1.379,14.244-1.379,22.291V70.516z M30.482,72.924V57.939 c0-0.275-0.224-0.5-0.5-0.5s-0.5,0.225-0.5,0.5v14.594c-1.031-0.422-2.035-0.898-3-1.438V46.163 c0-17.268,2.253-29.655,3.491-30.745c1.235,1.088,3.484,13.442,3.491,30.665c0,0.15,0.067,0.291,0.184,0.387 c0.115,0.094,0.268,0.131,0.415,0.104l2.573-0.516c0.207,0.729,0.642,1.362,1.227,1.815l-0.219,0.965l-3.777,0.754 c-0.271,0.055-0.447,0.318-0.393,0.59c0.054,0.27,0.316,0.447,0.588,0.391l3.339-0.666l-0.71,3.125l-2.808,0.562 c-0.233,0.047-0.401,0.252-0.401,0.49V67.15l-1.432,6.297C31.521,73.289,30.999,73.111,30.482,72.924z M36.448,54.1l-1.966,8.65 v-8.256L36.448,54.1z M39.999,74.609c-1.018,0-2.022-0.059-3.013-0.166l0.744-3.182c0.005-0.018,0.517-1.822,2.246-1.822 c1.708,0,2.219,1.75,2.235,1.805l0.748,3.205C41.986,74.553,40.999,74.609,39.999,74.609z M45.609,74.041 c-0.002,0-0.003,0.002-0.005,0.002c-0.439,0.09-0.883,0.168-1.33,0.238c-0.016,0.002-0.031,0.004-0.046,0.008 c-0.09,0.014-0.182,0.021-0.271,0.033L43.181,71c-0.241-0.887-1.222-2.561-3.21-2.561c-1.983,0-2.964,1.674-3.209,2.578 l-0.772,3.295c-1.004-0.145-2.001-0.344-2.975-0.594l5.759-25.338c0.227,0.084,0.463,0.148,0.709,0.186v17.373 c0,0.277,0.224,0.5,0.5,0.5s0.5-0.223,0.5-0.5V48.572c0.234-0.033,0.461-0.092,0.679-0.168l5.756,25.334 C46.485,73.85,46.05,73.951,45.609,74.041z M43.479,54.092l2.004,0.402v8.416L43.479,54.092z M53.482,71.117 c-0.966,0.535-1.969,1.01-3,1.43V57.939c0-0.275-0.224-0.5-0.5-0.5s-0.5,0.225-0.5,0.5v14.996 c-0.527,0.191-1.061,0.371-1.602,0.531l-1.398-6.156V54.084c0-0.238-0.168-0.443-0.402-0.49l-2.844-0.568l-0.709-3.119l3.34,0.666 c0.032,0.008,0.065,0.01,0.098,0.01c0.233,0,0.442-0.164,0.49-0.4c0.054-0.271-0.121-0.535-0.393-0.59l-3.777-0.754l-0.209-0.92 c0.61-0.453,1.066-1.1,1.282-1.847l2.513,0.502c0.147,0.027,0.3-0.01,0.415-0.104c0.116-0.096,0.184-0.236,0.184-0.387 c0.007-17.223,2.265-29.579,3.504-30.665c1.244,1.088,3.509,13.478,3.509,30.745V71.117z M56.482,69.189 c-0.646,0.477-1.312,0.928-2,1.348V46.163c0-8.041-0.493-15.957-1.388-22.291c-0.093-0.651-0.185-1.257-0.276-1.821 c2.208,1.15,4.241,2.589,6.055,4.263c-0.326,1.344-0.667,3.143-1.007,5.559c-0.893,6.33-1.384,14.248-1.384,22.292V69.189z M64.482,60.014c-0.857,1.578-1.865,3.062-3,4.438V41.938c0-0.275-0.224-0.5-0.5-0.5s-0.5,0.225-0.5,0.5v23.665 c-0.93,1.01-1.933,1.951-3,2.814V54.164c0-17.269,2.259-29.657,3.5-30.746c1.241,1.089,3.5,13.478,3.5,30.746V60.014z M64.268,33.132c2.274,4.031,3.578,8.68,3.578,13.63c0,3.99-0.846,7.785-2.363,11.219v-3.816 C65.482,46.645,65.053,39.237,64.268,33.132z" ></path> </svg>