<?xml version="1.0" encoding="utf-8"?> <!-- Generator: IcoMoon.io --> <!DOCTYPE svg PUBLIC "-//W3C//DTD SVG 1.1//EN" "http://www.w3.org/Graphics/SVG/1.1/DTD/svg11.dtd"> <svg version="1.1" id="Layer_1" xmlns="http://www.w3.org/2000/svg" xmlns:xlink="http://www.w3.org/1999/xlink" x="0px" y="0px" width="80px" height="80px" viewBox="0 0 80 80" enable-background="new 0 0 80 80" xml:space="preserve" fill="#423e3b"> <path d="M40.482,17.904v-2.489h1.5c0.275,0,0.5-0.224,0.5-0.5s-0.225-0.5-0.5-0.5h-1.5v-9.5 c0-0.276-0.225-0.5-0.5-0.5c-0.276,0-0.5,0.224-0.5,0.5v9.5h-1.5c-0.276,0-0.5,0.224-0.5,0.5s0.224,0.5,0.5,0.5h1.5v2.49 c-15.668,0.278-28.329,13.101-28.329,28.833c0,15.906,12.94,28.846,28.846,28.846c15.906,0,28.847-12.939,28.847-28.846 C68.846,30.995,56.165,18.164,40.482,17.904z M45.612,40.211c0.09,0.096,0.22,0.15,0.354,0.15c0.131,0,0.26-0.055,0.351-0.146 c0.075-0.074,0.116-0.174,0.134-0.277c1.271,1.193,2.213,2.728,2.678,4.458c-0.176-0.057-0.385-0.023-0.517,0.109 c-0.095,0.096-0.146,0.221-0.146,0.355c0,0.129,0.051,0.26,0.146,0.35c0.09,0.096,0.22,0.15,0.354,0.15 c0.129,0,0.256-0.055,0.346-0.146c0.094,0.535,0.152,1.082,0.152,1.645c0,0.137-0.016,0.271-0.021,0.406 c-0.019-0.098-0.056-0.188-0.127-0.26c-0.186-0.186-0.521-0.186-0.705,0c-0.095,0.096-0.146,0.221-0.146,0.355 c0,0.129,0.051,0.26,0.146,0.35c0.09,0.096,0.22,0.15,0.354,0.15c0.131,0,0.26-0.055,0.351-0.15 c0.055-0.053,0.09-0.119,0.114-0.189c-0.045,0.643-0.153,1.27-0.32,1.871c-0.173-0.049-0.371-0.016-0.499,0.113 c-0.095,0.096-0.146,0.221-0.146,0.355c0,0.018,0.009,0.035,0.011,0.055h-2.022c0.003-0.02,0.012-0.037,0.012-0.055 c0-0.135-0.055-0.266-0.149-0.355c-0.186-0.186-0.525-0.186-0.705,0c-0.095,0.09-0.146,0.221-0.146,0.355 c0,0.018,0.009,0.035,0.011,0.055h-2.026c0.002-0.02,0.011-0.037,0.011-0.055c0-0.135-0.05-0.26-0.145-0.355 c-0.186-0.186-0.516-0.189-0.705,0c-0.095,0.096-0.15,0.221-0.15,0.355c0,0.018,0.01,0.035,0.012,0.055h-2.022 c0.002-0.02,0.011-0.037,0.011-0.055c0-0.135-0.05-0.26-0.145-0.355c-0.186-0.186-0.521-0.189-0.705,0 c-0.095,0.096-0.15,0.221-0.15,0.355c0,0.018,0.01,0.035,0.012,0.055h-2.019c0.003-0.02,0.012-0.037,0.012-0.055 c0-0.135-0.055-0.26-0.149-0.355c-0.19-0.186-0.521-0.186-0.705,0c-0.095,0.096-0.146,0.221-0.146,0.355 c0,0.018,0.009,0.035,0.011,0.055h-2.022c0.003-0.02,0.012-0.037,0.012-0.055c0-0.135-0.055-0.266-0.149-0.355 c-0.186-0.186-0.521-0.186-0.705,0c-0.095,0.09-0.15,0.221-0.15,0.355c0,0.018,0.01,0.035,0.012,0.055h-2.022 c0.002-0.02,0.011-0.037,0.011-0.055c0-0.135-0.05-0.26-0.145-0.355c-0.126-0.127-0.319-0.16-0.489-0.113 c-0.133-0.479-0.225-0.973-0.281-1.477h7.918c1.654,0,3-1.346,3-3s-1.346-3-3-3h-5.636c-0.028-0.363-0.108-0.711-0.231-1.037 c0.271-0.336,0.565-0.65,0.88-0.945c0.017,0.104,0.058,0.205,0.135,0.277c0.09,0.096,0.22,0.15,0.354,0.15 c0.131,0,0.26-0.055,0.351-0.146c0.095-0.094,0.149-0.225,0.149-0.354c0-0.135-0.055-0.266-0.149-0.355 c-0.059-0.059-0.134-0.092-0.214-0.113c1.493-1.176,3.345-1.912,5.361-2.018c0.004,0.125,0.056,0.25,0.147,0.336 c0.09,0.096,0.22,0.15,0.35,0.15c0.136,0,0.265-0.055,0.355-0.15c0.089-0.084,0.135-0.205,0.14-0.326 c2.018,0.104,3.869,0.834,5.362,2.008c-0.078,0.021-0.151,0.055-0.207,0.113c-0.095,0.09-0.146,0.221-0.146,0.355 C45.467,39.991,45.518,40.122,45.612,40.211z M39.999,74.584c-1.01,0-2.007-0.057-2.989-0.162l0.222-5.006h2.251v2.5 c0,0.275,0.224,0.5,0.5,0.5c0.275,0,0.5-0.225,0.5-0.5v-2.5h2.215l0.224,5.016C41.96,74.531,40.986,74.584,39.999,74.584z M35.482,68.416v-2h9v2H35.482z M37.409,65.416l0.089-2h4.934l0.089,2H37.409z M35.482,62.416v-2h9v2H35.482z M37.676,59.416 l0.102-2.295c0.706,0.15,1.436,0.238,2.188,0.238c0.75,0,1.48-0.082,2.188-0.232l0.102,2.289H37.676z M39.965,56.359 c-2.437,0-4.653-0.93-6.334-2.443h12.672C44.619,55.43,42.401,56.359,39.965,56.359z M32.671,52.916 c-0.505-0.609-0.94-1.277-1.283-2h17.154c-0.342,0.719-0.762,1.393-1.265,2H32.671z M20.36,42.168 c-0.248-0.434-0.396-1.029-0.396-1.593c0-1.902,1.542-3.451,3.438-3.451c1.6,0,2.972,1.088,3.338,2.645 c0.039,0.164,0.158,0.299,0.318,0.355c0.159,0.057,0.336,0.029,0.472-0.072c0.482-0.369,1.043-0.562,1.622-0.562 c1.481,0,2.688,1.217,2.688,2.712c0,0.029-0.005,0.08-0.009,0.111c-0.007,0.033-0.011,0.068-0.011,0.104c0,0.275,0.225,0.5,0.5,0.5 h6.145c1.103,0,2,0.896,2,2s-0.897,2-2,2h-22c-1.104,0-2-0.896-2-2s0.896-2,2-2h3.461c0.179,0,0.343-0.096,0.433-0.25 C20.447,42.514,20.449,42.322,20.36,42.168z M44.482,37.395c-1.371-0.656-2.899-1.035-4.518-1.035 c-1.605,0-3.124,0.365-4.482,1.016v-2.959h9V37.395z M42.482,33.417h-5v-5h5V33.417z M35.482,27.417v-2h9v2H35.482z M12.153,46.738 c0-15.181,12.213-27.555,27.329-27.833v2.511h-1.5c-0.276,0-0.5,0.223-0.5,0.5c0,0.275,0.224,0.5,0.5,0.5h1.5v2h-4.5 c-0.276,0-0.5,0.223-0.5,0.5v3c0,0.275,0.224,0.5,0.5,0.5h1.5v5h-1.5c-0.276,0-0.5,0.223-0.5,0.5v4c0,0.002,0,0.004,0,0.004 c-0.897,0.557-1.707,1.242-2.4,2.033c-0.674-0.891-1.736-1.465-2.93-1.465c-0.574,0-1.133,0.137-1.646,0.398 c-0.667-1.656-2.271-2.764-4.104-2.764c-2.447,0-4.438,1.998-4.438,4.451c0,0.455,0.072,0.916,0.205,1.341h-2.705 c-1.654,0-3,1.346-3,3s1.346,3,3,3h13.078c0.425,4.211,3.338,7.691,7.245,8.941l-0.114,2.559h-1.691c-0.276,0-0.5,0.223-0.5,0.5v3 c0,0.275,0.224,0.5,0.5,0.5h1.512l-0.089,2h-1.423c-0.276,0-0.5,0.223-0.5,0.5v3c0,0.275,0.224,0.5,0.5,0.5h1.244l-0.219,4.879 C22.538,72.352,12.153,60.736,12.153,46.738z M43.921,74.303l-0.219-4.887h1.28c0.275,0,0.5-0.225,0.5-0.5v-3 c0-0.277-0.225-0.5-0.5-0.5h-1.459l-0.089-2h1.548c0.275,0,0.5-0.225,0.5-0.5v-3c0-0.277-0.225-0.5-0.5-0.5h-1.727l-0.114-2.551 c4.241-1.35,7.323-5.324,7.323-10.006c0-3.766-2-7.066-4.986-8.919c0-0.008,0.004-0.016,0.004-0.023v-4c0-0.277-0.225-0.5-0.5-0.5 h-1.5v-5h1.5c0.275,0,0.5-0.225,0.5-0.5v-3c0-0.277-0.225-0.5-0.5-0.5h-4.5v-2h1.5c0.275,0,0.5-0.225,0.5-0.5 c0-0.277-0.225-0.5-0.5-0.5h-1.5v-2.512c15.132,0.26,27.363,12.643,27.363,27.834c0,2.99-0.479,5.869-1.355,8.572 c-0.689-0.838-1.709-1.344-2.822-1.344c-0.3,0-0.595,0.035-0.883,0.107c-0.961-2.01-2.955-3.283-5.201-3.283 c-3.19,0-5.786,2.607-5.786,5.812c0,0.287,0.026,0.541,0.071,0.812h-0.404c-1.654,0-3,1.346-3,3s1.346,3,3,3h10.82 C57.944,69.201,51.406,73.244,43.921,74.303z M62.999,62.416H51.465c-1.104,0-2-0.896-2-2s0.896-2,2-2h1.009 c0.15,0,0.293-0.068,0.388-0.186c0.096-0.115,0.133-0.27,0.102-0.416c-0.102-0.494-0.165-0.814-0.165-1.211 c0-2.654,2.147-4.812,4.786-4.812c1.986,0,3.735,1.207,4.455,3.074c0.048,0.125,0.144,0.225,0.266,0.279 c0.121,0.053,0.26,0.057,0.383,0.008c0.313-0.123,0.643-0.186,0.98-0.186c1.018,0,1.947,0.609,2.409,1.529 C65.287,58.602,64.25,60.586,62.999,62.416zM39.962,31.362c0.136,0,0.261-0.055,0.355-0.15c0.095-0.09,0.149-0.221,0.149-0.35 c0-0.135-0.055-0.266-0.149-0.355c-0.186-0.186-0.521-0.186-0.705,0c-0.095,0.09-0.15,0.221-0.15,0.355 c0,0.129,0.056,0.26,0.15,0.354C39.707,31.307,39.832,31.362,39.962,31.362zM42.612,47.006c-0.095,0.096-0.15,0.221-0.15,0.355c0,0.129,0.056,0.26,0.15,0.35 c0.09,0.096,0.22,0.15,0.35,0.15c0.136,0,0.265-0.055,0.355-0.15c0.095-0.09,0.145-0.221,0.145-0.35c0-0.135-0.05-0.26-0.145-0.355 C43.132,46.82,42.802,46.816,42.612,47.006zM45.612,47.006c-0.095,0.09-0.146,0.221-0.146,0.355c0,0.129,0.051,0.26,0.146,0.35 c0.09,0.096,0.22,0.15,0.354,0.15c0.131,0,0.26-0.055,0.351-0.146c0.095-0.094,0.149-0.225,0.149-0.354 c0-0.135-0.055-0.266-0.149-0.355C46.132,46.82,45.792,46.82,45.612,47.006zM42.612,44.506c-0.095,0.096-0.15,0.221-0.15,0.355c0,0.129,0.056,0.26,0.15,0.35 c0.09,0.096,0.22,0.15,0.35,0.15c0.136,0,0.265-0.055,0.355-0.15c0.095-0.09,0.145-0.221,0.145-0.35c0-0.135-0.05-0.26-0.145-0.355 C43.132,44.32,42.802,44.316,42.612,44.506zM45.612,44.506c-0.095,0.09-0.146,0.221-0.146,0.355c0,0.129,0.051,0.26,0.146,0.35 c0.09,0.096,0.22,0.15,0.354,0.15c0.131,0,0.26-0.055,0.351-0.146c0.095-0.094,0.149-0.225,0.149-0.354 c0-0.135-0.055-0.266-0.149-0.355C46.132,44.32,45.792,44.32,45.612,44.506zM42.612,42.006c-0.095,0.096-0.15,0.221-0.15,0.355c0,0.129,0.056,0.26,0.15,0.35 c0.09,0.096,0.22,0.15,0.35,0.15c0.136,0,0.265-0.055,0.355-0.15c0.095-0.09,0.145-0.221,0.145-0.35c0-0.135-0.05-0.26-0.145-0.355 C43.132,41.82,42.802,41.816,42.612,42.006zM45.612,42.711c0.09,0.096,0.22,0.15,0.354,0.15c0.131,0,0.26-0.055,0.351-0.146 c0.095-0.094,0.149-0.225,0.149-0.354c0-0.135-0.055-0.266-0.149-0.355c-0.186-0.186-0.525-0.186-0.705,0 c-0.095,0.09-0.146,0.221-0.146,0.355C45.467,42.49,45.518,42.621,45.612,42.711zM39.612,39.506c-0.095,0.096-0.15,0.221-0.15,0.355c0,0.129,0.056,0.26,0.15,0.35 c0.09,0.096,0.22,0.15,0.35,0.15c0.136,0,0.265-0.055,0.355-0.15c0.095-0.09,0.145-0.221,0.145-0.35c0-0.135-0.05-0.26-0.145-0.355 C40.132,39.321,39.797,39.317,39.612,39.506zM36.612,39.506c-0.095,0.096-0.146,0.221-0.146,0.355c0,0.129,0.051,0.26,0.146,0.35 c0.09,0.096,0.22,0.15,0.354,0.15c0.131,0,0.26-0.055,0.351-0.15c0.095-0.09,0.149-0.221,0.149-0.35 c0-0.135-0.055-0.26-0.149-0.355C37.127,39.321,36.797,39.321,36.612,39.506zM42.612,39.506c-0.095,0.096-0.15,0.221-0.15,0.355c0,0.129,0.056,0.26,0.15,0.35 c0.09,0.096,0.22,0.15,0.35,0.15c0.136,0,0.265-0.055,0.355-0.15c0.095-0.09,0.145-0.221,0.145-0.35c0-0.135-0.05-0.26-0.145-0.355 C43.132,39.321,42.802,39.317,42.612,39.506z" ></path> </svg>