<?xml version="1.0" encoding="utf-8"?> <!-- Generator: IcoMoon.io --> <!DOCTYPE svg PUBLIC "-//W3C//DTD SVG 1.1//EN" "http://www.w3.org/Graphics/SVG/1.1/DTD/svg11.dtd"> <svg version="1.1" id="Layer_1" xmlns="http://www.w3.org/2000/svg" xmlns:xlink="http://www.w3.org/1999/xlink" x="0px" y="0px" width="80px" height="80px" viewBox="0 0 80 80" enable-background="new 0 0 80 80" xml:space="preserve" fill="#423e3b"> <path d="M39.965,27.359c-1.379,0-2.5-1.121-2.5-2.5s1.121-2.5,2.5-2.5c1.378,0,2.5,1.121,2.5,2.5 S41.343,27.359,39.965,27.359z M39.965,23.359c-0.827,0-1.5,0.672-1.5,1.5c0,0.826,0.673,1.5,1.5,1.5s1.5-0.674,1.5-1.5 C41.465,24.031,40.792,23.359,39.965,23.359zM45.482,18.432v-3.52c0-0.275-0.187-0.496-0.464-0.496h-0.546c-0.135-1.5-0.99-2.557-1.99-3.287V7.914 c0-0.275-0.19-0.498-0.467-0.498h-1.533v-2.5c0-0.277-0.224-0.5-0.5-0.5s-0.5,0.223-0.5,0.5v2.5h-1.471 c-0.276,0-0.529,0.223-0.529,0.498v3.193c-1,0.729-1.827,1.809-1.963,3.309h-0.512c-0.276,0-0.525,0.221-0.525,0.496v3.525 c-13.273,2.584-23.329,14.283-23.329,28.301c0,15.906,12.94,28.846,28.846,28.846c15.906,0,28.847-12.939,28.847-28.846 C68.846,32.709,58.772,21,45.482,18.432z M45.482,19.449c9.996,2.006,18.075,9.373,21.089,18.967h-4.089v-1.512 c0-0.275-0.168-0.488-0.444-0.488h-1.556v-3.51c0-0.275-0.224-0.5-0.5-0.5s-0.5,0.225-0.5,0.5v3.51h-1.449 c-0.276,0-0.551,0.213-0.551,0.488v1.512h-8v-4h0.542c0.276,0,0.458-0.234,0.458-0.51v-3.998c0-0.277-0.182-0.492-0.458-0.492 h-2.542V20.91c0-0.275-0.185-0.494-0.461-0.494h-1.539V19.449z M61.482,37.416v3h-3v-3H61.482z M43.482,56.416v-2h4v2H43.482z M47.482,57.416v5h-4v-5H47.482z M42.482,53.416v-3h6v3H42.482z M20.335,49.416l-0.668-2h40.657l-0.667,2H20.335z M41.982,57.416 h0.5v5h-5v-5h0.5c0.276,0,0.5-0.225,0.5-0.5c0-0.277-0.224-0.5-0.5-0.5h-0.5v-2h0.529c0.276,0,0.471-0.24,0.471-0.516v-3.484h3 V53.9c0,0.275,0.257,0.516,0.533,0.516h0.467v2h-0.5c-0.276,0-0.5,0.223-0.5,0.5C41.482,57.191,41.706,57.416,41.982,57.416z M32.482,56.416v-2h4v2H32.482z M36.482,57.416v5h-4v-5H36.482z M31.482,53.416v-3h6v3H31.482z M21.562,46.416l18.435-12.885 L58.43,46.416H21.562z M33.482,33.416h-3v-3h3V33.416z M34.007,34.416c0.276,0,0.476-0.234,0.476-0.51v-3.49h3v3.617l-6,4.199 v-3.326v-0.49H34.007z M38.482,33.334v-2.918h3v2.943l-1.216-0.863c-0.173-0.119-0.408-0.119-0.58,0L38.482,33.334z M46.021,34.416 h2.462v0.49v3.35l-6-4.197v-3.643h3v3.49C45.482,34.182,45.744,34.416,46.021,34.416z M46.482,33.416v-3h3v3H46.482z M38.482,8.416 h3v2.211c-0.5-0.172-0.984-0.27-1.518-0.27c-0.521,0-0.982,0.094-1.482,0.256V8.416z M39.996,11.359 c1.781,0,3.253,1.557,3.473,3.057h-6.945C36.742,12.916,38.215,11.359,39.996,11.359z M35.482,16.412v-0.996h9v0.996v3.627 l-4.247-2.557c-0.159-0.094-0.36-0.094-0.52,0l-4.233,2.535V16.412z M34.99,21.416c0.091,0,0.18-0.027,0.258-0.074l4.748-2.846 l4.748,2.846c0.078,0.047,0.167,0.074,0.257,0.074h1.481v8h-13v-8H34.99z M34.482,19.457v0.959h-1.477 c-0.276,0-0.523,0.219-0.523,0.494v8.506h-2.479c-0.276,0-0.521,0.215-0.521,0.492v3.998c0,0.275,0.244,0.51,0.521,0.51h0.479v4h-8 v-1.512c0-0.275-0.212-0.488-0.488-0.488h-1.512v-3.51c0-0.275-0.224-0.5-0.5-0.5s-0.5,0.225-0.5,0.5v3.51h-1.493 c-0.276,0-0.507,0.213-0.507,0.488v1.512h-4.054C16.438,28.832,24.502,21.473,34.482,19.457z M21.482,37.416v3h-3v-3H21.482z M12.153,46.738c0-2.533,0.342-4.988,0.979-7.322h0.02h4.331v1.488c0,0.275,0.23,0.512,0.507,0.512h4.005 c0.276,0,0.488-0.236,0.488-0.512v-1.488h7.345l-10.011,7h-0.844c-0.16,0-0.312,0.07-0.405,0.201 c-0.095,0.129-0.12,0.301-0.069,0.453l0.781,2.346h-6.995C12.2,48.533,12.153,47.641,12.153,46.738z M20.482,56.416h-0.5 c-0.276,0-0.5,0.223-0.5,0.5c0,0.275,0.224,0.5,0.5,0.5h0.5v9.16c-4.311-4.242-7.245-9.873-8.079-16.16h7.079V53.9 c0,0.275,0.232,0.516,0.509,0.516h0.491V56.416z M20.482,50.416h6v3h-6V50.416z M25.482,70.49c-1.423-0.873-2.761-1.871-4-2.979 V67.5V57.416h4V70.49z M25.482,56.416h-4v-2h4V56.416z M29.482,62.916v2.5h-0.5c-0.276,0-0.5,0.223-0.5,0.5 c0,0.275,0.224,0.5,0.5,0.5h0.5v6.1c-1.032-0.422-2.034-0.904-3-1.443V57.416h0.5c0.276,0,0.5-0.225,0.5-0.5 c0-0.277-0.224-0.5-0.5-0.5h-0.5v-2h0.517c0.276,0,0.483-0.24,0.483-0.516v-3.484h3V53.9c0,0.275,0.245,0.516,0.521,0.516h0.479v2 h-0.5c-0.276,0-0.5,0.223-0.5,0.5c0,0.275,0.224,0.5,0.5,0.5h0.5v5h-1.5C29.706,62.416,29.482,62.639,29.482,62.916z M37.482,74.471c-1.364-0.123-2.699-0.35-4-0.664v-2.781c0-1.102,0.897-2,2-2s2,0.898,2,2V74.471z M46.482,73.814 c-1.302,0.312-2.636,0.539-4,0.66v-3.449c0-1.102,0.897-2,2-2s2,0.898,2,2V73.814z M49.482,72.92c-0.655,0.238-1.323,0.447-2,0.637 v-2.531c0-1.654-1.346-3-3-3s-3,1.346-3,3v3.516c-0.491,0.025-0.985,0.043-1.483,0.043c-0.509,0-1.014-0.018-1.517-0.045v-3.514 c0-1.654-1.346-3-3-3s-3,1.346-3,3v2.523c-0.677-0.191-1.345-0.402-2-0.641v-6.492h19V72.92z M49.482,65.416h-19v-2h19V65.416z M53.482,56.416h-0.5c-0.276,0-0.5,0.223-0.5,0.5c0,0.275,0.224,0.5,0.5,0.5h0.5v13.676c-0.967,0.537-1.968,1.018-3,1.438v-6.113 h0.5c0.276,0,0.5-0.225,0.5-0.5c0-0.277-0.224-0.5-0.5-0.5h-0.5v-2.5c0-0.277-0.224-0.5-0.5-0.5h-1.5v-5h0.5 c0.276,0,0.5-0.225,0.5-0.5c0-0.277-0.224-0.5-0.5-0.5h-0.5v-2h0.541c0.276,0,0.459-0.24,0.459-0.516v-3.484h3V53.9 c0,0.275,0.269,0.516,0.545,0.516h0.455V56.416z M53.482,50.416h6v3h-6V50.416z M58.482,67.541c-1.24,1.104-2.577,2.102-4,2.971 V57.416h4V67.541z M58.482,56.416h-4v-2h4V56.416z M59.482,66.609v-9.193h0.5c0.276,0,0.5-0.225,0.5-0.5c0-0.277-0.224-0.5-0.5-0.5 h-0.5v-2h0.553c0.276,0,0.447-0.24,0.447-0.516v-3.484h7.113C66.76,56.719,63.812,62.363,59.482,66.609z M60.713,49.416 l0.781-2.348c0.051-0.152,0.024-0.318-0.069-0.449c-0.094-0.129-0.245-0.203-0.406-0.203h-0.843l-10.011-7h7.317v1.488 c0,0.275,0.274,0.512,0.551,0.512h4.005c0.276,0,0.444-0.236,0.444-0.512v-1.488h4.385c0.637,2.334,0.979,4.789,0.979,7.322 c0,0.902-0.047,1.795-0.131,2.678H60.713z" ></path> </svg>