<?xml version="1.0" encoding="utf-8"?> <!-- Generator: IcoMoon.io --> <!DOCTYPE svg PUBLIC "-//W3C//DTD SVG 1.1//EN" "http://www.w3.org/Graphics/SVG/1.1/DTD/svg11.dtd"> <svg version="1.1" id="Layer_1" xmlns="http://www.w3.org/2000/svg" xmlns:xlink="http://www.w3.org/1999/xlink" x="0px" y="0px" width="80px" height="80px" viewBox="0 0 80 80" enable-background="new 0 0 80 80" xml:space="preserve" fill="#423e3b"> <path d="M61.928,28.033L61.535,8.416h0.447c0.276,0,0.5-0.225,0.5-0.5c0-0.277-0.224-0.5-0.5-0.5h-0.467 l-0.051-2.51c-0.006-0.273-0.228-0.49-0.5-0.49h-5c-0.271,0-0.494,0.217-0.5,0.49l-0.051,2.51h-0.432c-0.275,0-0.5,0.223-0.5,0.5 c0,0.275,0.225,0.5,0.5,0.5h0.412l-0.275,13.779c-4.4-2.721-9.576-4.303-15.119-4.303c-5.572,0-10.773,1.598-15.188,4.346 L24.535,8.416h0.447c0.276,0,0.5-0.225,0.5-0.5c0-0.277-0.224-0.5-0.5-0.5h-0.467l-0.051-2.51c-0.006-0.273-0.228-0.49-0.5-0.49 h-5c-0.271,0-0.494,0.217-0.5,0.49l-0.051,2.51h-0.432c-0.275,0-0.5,0.223-0.5,0.5c0,0.275,0.225,0.5,0.5,0.5h0.412L18,28.117 c-4.264,5.029-6.846,11.525-6.846,18.621c0,15.906,12.939,28.846,28.846,28.846s28.846-12.939,28.846-28.846 C68.846,39.604,66.234,33.072,61.928,28.033z M67.846,46.738c0,2.662-0.383,5.236-1.084,7.678h-4.307l-0.496-24.773 C65.645,34.365,67.846,40.299,67.846,46.738z M56.455,5.416h4.02l0.041,2h-4.101L56.455,5.416z M56.395,8.416h4.141l0.061,3h-4.26 L56.395,8.416z M56.314,12.416h4.301l0.061,3h-4.42L56.314,12.416z M56.234,16.416h4.461l0.061,3h-4.58L56.234,16.416z M56.154,20.416h4.621l0.061,3h-4.74L56.154,20.416z M56.075,24.416h4.78l0.06,3h-4.899L56.075,24.416z M55.995,28.416h4.94 l0.059,3h-5.059L55.995,28.416z M55.916,32.416h5.1l0.059,3h-5.219L55.916,32.416z M55.836,36.416h5.26l0.059,3h-5.379 L55.836,36.416z M55.756,40.416h5.42l0.059,3h-5.539L55.756,40.416z M55.676,44.416h5.58l0.059,3h-5.699L55.676,44.416z M55.596,48.416h5.739l0.06,3h-5.859L55.596,48.416z M61.415,52.416l0.04,2h-5.98l0.041-2H61.415z M40,18.893 c5.561,0,10.743,1.645,15.096,4.463l-0.24,12.061h-2.373v-1.5c0-0.277-0.224-0.5-0.5-0.5h-5.5v-6.5c0-0.277-0.224-0.5-0.5-0.5h-12 c-0.275,0-0.5,0.223-0.5,0.5v6.5h-5.5c-0.275,0-0.5,0.223-0.5,0.5v1.5h-2.406L24.836,23.4C29.201,20.553,34.41,18.893,40,18.893z M54.834,36.416l-0.359,18h-1.992v-18H54.834z M45.982,43.416h-12c-0.275,0-0.5,0.223-0.5,0.5v10.5h-5v-20h23v20h-5v-10.5 C46.482,43.639,46.259,43.416,45.982,43.416z M45.482,44.416v10h-2v-10H45.482z M42.482,44.416v10h-2v-10H42.482z M39.482,44.416 v10h-2v-10H39.482z M36.482,44.416v10h-2v-10H36.482z M36.982,29.416c0.276,0,0.5-0.225,0.5-0.5v-1.5h5v1.5 c0,0.275,0.225,0.5,0.5,0.5c0.276,0,0.5-0.225,0.5-0.5v-1.5h2v6h-2v-1.5c0-0.277-0.224-0.5-0.5-0.5c-0.275,0-0.5,0.223-0.5,0.5 v1.5h-2v-1.5c0-0.277-0.224-0.5-0.5-0.5c-0.275,0-0.5,0.223-0.5,0.5v1.5h-2v-1.5c0-0.277-0.224-0.5-0.5-0.5 c-0.275,0-0.5,0.223-0.5,0.5v1.5h-2v-6h2v1.5C36.482,29.191,36.707,29.416,36.982,29.416z M27.482,36.416v18h-2.027l-0.359-18 H27.482z M66.455,55.416c-0.955,2.904-2.371,5.604-4.17,8h-4.803v-2.5c0-0.277-0.224-0.5-0.5-0.5h-1.5v-2.5 c0-0.277-0.224-0.5-0.5-0.5h-30c-0.275,0-0.5,0.223-0.5,0.5v2.5h-1.5c-0.275,0-0.5,0.223-0.5,0.5v2.5h-4.768 c-1.799-2.396-3.215-5.096-4.17-8H66.455z M53.482,71.092v-9.676h3v7.748C55.527,69.869,54.525,70.512,53.482,71.092z M49.482,72.92c-0.975,0.354-1.978,0.65-3,0.895v-9.398h3v8.5V72.92z M49.982,63.416h-4c-0.275,0-0.5,0.223-0.5,0.5v10.123 c-0.658,0.133-1.326,0.236-2,0.32V63.916c0-0.277-0.224-0.5-0.5-0.5h-6c-0.275,0-0.5,0.223-0.5,0.5v10.439 c-0.674-0.086-1.342-0.189-2-0.322V63.916c0-0.277-0.224-0.5-0.5-0.5h-4c-0.275,0-0.5,0.223-0.5,0.5v8.6 c-0.681-0.279-1.348-0.584-2-0.914V60.916c0-0.277-0.224-0.5-0.5-0.5h-1.5v-2h29v2h-1.5c-0.275,0-0.5,0.223-0.5,0.5v10.703 c-0.652,0.328-1.318,0.633-2,0.91v-8.613C50.482,63.639,50.259,63.416,49.982,63.416z M30.482,72.908v-0.018v-8.475h3v9.391 C32.461,73.561,31.457,73.264,30.482,72.908z M23.482,69.141v-7.725h3v9.656C25.439,70.49,24.438,69.846,23.482,69.141z M19.455,5.416h4.02l0.041,2h-4.101L19.455,5.416z M19.395,8.416h4.141l0.061,3h-4.26L19.395,8.416z M19.314,12.416h4.301l0.061,3 h-4.42L19.314,12.416z M19.234,16.416h4.461l0.061,3h-4.58L19.234,16.416z M19.154,20.416h4.621l0.061,3h-4.74L19.154,20.416z M19.074,24.416h4.781l0.061,3h-4.9L19.074,24.416z M18.994,28.416h4.941l0.06,3h-5.06L18.994,28.416z M18.915,32.416h5.101 l0.06,3h-5.22L18.915,32.416z M18.835,36.416h5.261l0.059,3h-5.379L18.835,36.416z M18.756,40.416h5.42l0.059,3h-5.539 L18.756,40.416z M18.676,44.416h5.58l0.059,3h-5.699L18.676,44.416z M18.596,48.416h5.74l0.059,3h-5.859L18.596,48.416z M24.415,52.416l0.04,2h-5.98l0.041-2H24.415z M17.969,29.736l-0.494,24.68h-4.236c-0.701-2.441-1.084-5.016-1.084-7.678 C12.154,40.34,14.327,34.443,17.969,29.736z M18.5,64.416h3.982v3.947C21.027,67.184,19.691,65.861,18.5,64.416z M37.482,74.465 V64.416h5v10.053c-0.818,0.072-1.645,0.115-2.482,0.115C39.15,74.584,38.312,74.541,37.482,74.465z M57.482,68.391v-3.975H61.5 C60.299,65.873,58.951,67.203,57.482,68.391zM49.982,60.416h-20c-0.275,0-0.5,0.223-0.5,0.5c0,0.275,0.225,0.5,0.5,0.5h20c0.276,0,0.5-0.225,0.5-0.5 C50.482,60.639,50.259,60.416,49.982,60.416zM39.982,40.416c-0.275,0-0.5-0.225-0.5-0.5v-2c0-0.277,0.225-0.5,0.5-0.5c0.276,0,0.5,0.223,0.5,0.5v2 C40.482,40.191,40.259,40.416,39.982,40.416zM36.982,40.416c-0.275,0-0.5-0.225-0.5-0.5v-2c0-0.277,0.225-0.5,0.5-0.5c0.276,0,0.5,0.223,0.5,0.5v2 C37.482,40.191,37.259,40.416,36.982,40.416zM33.982,40.416c-0.275,0-0.5-0.225-0.5-0.5v-2c0-0.277,0.225-0.5,0.5-0.5c0.276,0,0.5,0.223,0.5,0.5v2 C34.482,40.191,34.259,40.416,33.982,40.416zM45.982,40.416c-0.275,0-0.5-0.225-0.5-0.5v-2c0-0.277,0.225-0.5,0.5-0.5c0.276,0,0.5,0.223,0.5,0.5v2 C46.482,40.191,46.259,40.416,45.982,40.416zM42.982,40.416c-0.275,0-0.5-0.225-0.5-0.5v-2c0-0.277,0.225-0.5,0.5-0.5c0.276,0,0.5,0.223,0.5,0.5v2 C43.482,40.191,43.259,40.416,42.982,40.416z" ></path> </svg>