<?xml version="1.0" encoding="utf-8"?> <!-- Generator: IcoMoon.io --> <!DOCTYPE svg PUBLIC "-//W3C//DTD SVG 1.1//EN" "http://www.w3.org/Graphics/SVG/1.1/DTD/svg11.dtd"> <svg version="1.1" id="Layer_1" xmlns="http://www.w3.org/2000/svg" xmlns:xlink="http://www.w3.org/1999/xlink" x="0px" y="0px" width="80px" height="80px" viewBox="0 0 80 80" enable-background="new 0 0 80 80" xml:space="preserve" fill="#423e3b"> <path d="M48.982,46.416h-1.414c-0.061-1.045-0.332-2.033-0.771-2.924l1.213-0.701 c0.238-0.137,0.32-0.443,0.182-0.682c-0.139-0.24-0.443-0.322-0.682-0.184l-1.209,0.697c-0.557-0.83-1.271-1.545-2.1-2.1 l0.697-1.209c0.137-0.238,0.057-0.545-0.184-0.684s-0.545-0.057-0.684,0.184l-0.699,1.213c-0.871-0.43-1.832-0.699-2.85-0.768 v-1.344c0-0.277-0.225-0.5-0.5-0.5s-0.5,0.223-0.5,0.5v1.342c-1.029,0.064-2.004,0.334-2.883,0.77l-0.701-1.213 c-0.139-0.24-0.443-0.322-0.684-0.184c-0.238,0.139-0.32,0.443-0.184,0.684l0.699,1.209c-0.83,0.555-1.545,1.27-2.102,2.1 l-1.207-0.697c-0.24-0.139-0.547-0.057-0.684,0.184c-0.139,0.238-0.057,0.545,0.184,0.682l1.213,0.701 c-0.441,0.891-0.711,1.879-0.771,2.924h-1.381c-0.275,0-0.5,0.223-0.5,0.5c0,0.275,0.225,0.5,0.5,0.5h1.387 c0.072,1.002,0.34,1.951,0.766,2.809l-1.213,0.701c-0.24,0.139-0.322,0.443-0.184,0.684c0.092,0.16,0.26,0.25,0.434,0.25 c0.084,0,0.17-0.021,0.25-0.068l1.207-0.697c0.557,0.83,1.271,1.545,2.1,2.102l-0.697,1.207c-0.137,0.24-0.055,0.545,0.184,0.684 c0.078,0.045,0.164,0.066,0.25,0.066c0.172,0,0.34-0.09,0.434-0.25l0.699-1.213c0.881,0.436,1.854,0.705,2.885,0.77v1.457 c0,0.275,0.225,0.5,0.5,0.5s0.5-0.225,0.5-0.5v-1.459c1.018-0.068,1.979-0.336,2.85-0.768l0.699,1.215 c0.094,0.16,0.262,0.25,0.434,0.25c0.086,0,0.172-0.021,0.25-0.068c0.238-0.137,0.32-0.443,0.184-0.682l-0.697-1.209 c0.828-0.557,1.543-1.271,2.1-2.102l1.209,0.697c0.078,0.047,0.164,0.068,0.25,0.068c0.172,0,0.34-0.09,0.434-0.25 c0.137-0.24,0.055-0.545-0.184-0.684l-1.213-0.701c0.424-0.857,0.691-1.807,0.766-2.809h1.42c0.275,0,0.5-0.225,0.5-0.5 C49.482,46.639,49.258,46.416,48.982,46.416z M39.965,53.484c-3.652,0-6.625-2.973-6.625-6.625c0-3.654,2.973-6.625,6.625-6.625 s6.625,2.971,6.625,6.625C46.59,50.512,43.617,53.484,39.965,53.484zM42.982,46.416h-2.5v-3.5c0-0.277-0.225-0.5-0.5-0.5s-0.5,0.223-0.5,0.5v4c0,0.275,0.225,0.5,0.5,0.5h3 c0.275,0,0.5-0.225,0.5-0.5C43.482,46.639,43.258,46.416,42.982,46.416zM39.967,27.36c0.131,0,0.256-0.055,0.352-0.148c0.094-0.096,0.148-0.221,0.148-0.352 c0-0.129-0.055-0.26-0.148-0.354c-0.186-0.186-0.521-0.186-0.705,0c-0.096,0.094-0.146,0.219-0.146,0.354 c0,0.131,0.051,0.262,0.146,0.355C39.707,27.305,39.832,27.36,39.967,27.36zM35.963,27.36c0.135,0,0.26-0.055,0.355-0.148c0.094-0.09,0.145-0.221,0.145-0.352 c0-0.135-0.051-0.26-0.145-0.354c-0.186-0.186-0.521-0.186-0.705,0c-0.096,0.09-0.15,0.219-0.15,0.354 c0,0.131,0.055,0.262,0.15,0.355C35.707,27.305,35.832,27.36,35.963,27.36zM37.963,25.36c0.135,0,0.26-0.055,0.355-0.148c0.094-0.09,0.145-0.221,0.145-0.352 c0-0.135-0.051-0.264-0.145-0.354c-0.182-0.186-0.525-0.186-0.705,0c-0.096,0.09-0.15,0.219-0.15,0.354 c0,0.131,0.055,0.262,0.15,0.352C37.707,25.305,37.832,25.36,37.963,25.36zM41.963,25.36c0.135,0,0.26-0.055,0.355-0.148c0.094-0.09,0.145-0.221,0.145-0.352 c0-0.135-0.051-0.264-0.145-0.354c-0.182-0.186-0.525-0.186-0.705,0c-0.096,0.09-0.15,0.219-0.15,0.354 c0,0.131,0.055,0.262,0.15,0.352C41.703,25.305,41.832,25.36,41.963,25.36zM43.967,27.36c0.131,0,0.256-0.055,0.352-0.148c0.094-0.09,0.148-0.221,0.148-0.352 c0-0.135-0.055-0.264-0.148-0.354c-0.186-0.186-0.525-0.186-0.705,0c-0.096,0.09-0.146,0.219-0.146,0.354 c0,0.131,0.051,0.262,0.146,0.352C43.703,27.305,43.832,27.36,43.967,27.36zM46.482,18.637v-1.722c0-0.276-0.225-0.5-0.5-0.5h-0.008h-0.004h-0.006c-2.369,0-4.637-7.112-5.51-11.596 c-0.045-0.235-0.25-0.404-0.49-0.404c-0.238,0-0.445,0.169-0.49,0.404c-0.873,4.483-3.135,11.596-5.506,11.596 c-0.275,0-0.486,0.224-0.486,0.5v1.73c-12.775,2.963-22.329,14.429-22.329,28.092c0,15.906,12.94,28.846,28.847,28.846 s28.846-12.939,28.846-28.846C68.846,33.061,59.275,21.588,46.482,18.637z M39.965,7.206c0.684,2.753,2.033,7.228,3.984,9.21 h-3.467v-1.5c0-0.276-0.225-0.5-0.5-0.5s-0.5,0.224-0.5,0.5v1.5H35.98C37.932,14.433,39.283,9.958,39.965,7.206z M34.482,17.416h11 v4h-2v-1.5c0-0.277-0.225-0.5-0.5-0.5s-0.5,0.223-0.5,0.5v1.5h-2v-1.5c0-0.277-0.225-0.5-0.5-0.5s-0.5,0.223-0.5,0.5v1.5h-2v-1.5 c0-0.277-0.225-0.5-0.5-0.5s-0.5,0.223-0.5,0.5v1.5h-2V17.416z M34.453,22.416h11.059c0.236,2.323,1.887,5.586,2.652,7H31.801 C32.566,28.002,34.217,24.739,34.453,22.416z M12.153,46.738c0-0.375,0.01-0.746,0.024-1.117c0.076-0.006,0.15-0.01,0.225-0.01 c1.598,0,2.971,1.092,3.338,2.656c0.039,0.164,0.158,0.299,0.318,0.355c0.159,0.057,0.336,0.029,0.472-0.072 c0.474-0.361,1.034-0.553,1.622-0.553c1.482,0,2.688,1.211,2.688,2.701c0,0.029-0.004,0.082-0.008,0.113 c-0.008,0.033-0.012,0.068-0.012,0.104c0,0.275,0.225,0.5,0.5,0.5h6.145c1.104,0,2,0.896,2,2c0,1.102-0.896,2-2,2H13.543 C12.644,52.684,12.153,49.768,12.153,46.738z M28.482,56.234c1.154-0.418,1.982-1.521,1.982-2.818s-0.828-2.4-1.982-2.818V35.417 h23v23h-23V56.234z M48.482,34.417h-2v-1.5c0-0.277-0.225-0.5-0.5-0.5s-0.5,0.223-0.5,0.5v1.5h-2v-1.5c0-0.277-0.225-0.5-0.5-0.5 s-0.5,0.223-0.5,0.5v1.5h-2v-1.5c0-0.277-0.225-0.5-0.5-0.5s-0.5,0.223-0.5,0.5v1.5h-2v-1.5c0-0.277-0.225-0.5-0.5-0.5 s-0.5,0.223-0.5,0.5v1.5h-2v-1.5c0-0.277-0.225-0.5-0.5-0.5s-0.5,0.223-0.5,0.5v1.5h-2v-4h17V34.417z M33.482,19.676v2.211 c0,1.665-1.141,4.258-2,5.973v-2.943c0-0.277-0.225-0.5-0.5-0.5s-0.5,0.223-0.5,0.5v9.5h-2.5c-0.275,0-0.5,0.223-0.5,0.5v15.5 c-0.006,0-0.012,0-0.018,0H21.83c-0.146-1.91-1.74-3.418-3.678-3.418c-0.578,0-1.135,0.133-1.644,0.391 c-0.668-1.664-2.272-2.777-4.106-2.777c-0.054,0-0.109,0.006-0.164,0.01C13.158,32.458,21.928,22.459,33.482,19.676z M30.482,72.908c-0.422-0.154-0.84-0.318-1.254-0.492h1.254V72.908z M30.482,68.416h-1.5c-0.275,0-0.5,0.223-0.5,0.5 c0,0.275,0.225,0.5,0.5,0.5h1.5v2h-1.5c-0.275,0-0.5,0.223-0.5,0.5c0,0.064,0.014,0.125,0.037,0.182 c-6.729-3.059-12.033-8.717-14.626-15.682h13.571c0.006,0,0.012-0.002,0.018-0.002v2.502c0,0.275,0.225,0.5,0.5,0.5h0.5v2.5 c0,0.275,0.225,0.5,0.5,0.5h1.5V68.416z M33.482,73.807c-0.676-0.164-1.344-0.348-2-0.561v-0.008v-0.822h2V73.807z M33.482,71.416 h-2v-2h2V71.416z M33.482,68.416h-2v-6h2V68.416z M36.482,74.354c-0.674-0.084-1.342-0.188-2-0.32v-1.617h2V74.354z M36.482,71.416 h-2v-2h2V71.416z M36.482,68.416h-2v-6h2V68.416z M39.482,74.57c-0.672-0.012-1.34-0.045-2-0.105v-2.049h2V74.57z M39.482,71.416 h-2v-2h2V71.416z M39.482,68.416h-2v-6h2V68.416z M29.482,61.416v-2h21v2H29.482z M42.482,74.467c-0.66,0.059-1.328,0.094-2,0.105 v-2.156h2V74.467z M42.482,71.416h-2v-2h2V71.416z M42.482,68.416h-2v-6h2V68.416z M45.482,74.039c-0.658,0.133-1.326,0.234-2,0.32 v-1.943h2V74.039z M45.482,71.416h-2v-2h2V71.416z M45.482,68.416h-2v-6h2V68.416z M48.482,73.258 c-0.656,0.211-1.324,0.395-2,0.557v-1.398h2V73.258z M48.482,71.416h-2v-2h2V71.416z M48.482,68.416h-2v-6h2V68.416z M49.482,72.92 v-0.504h1.289C50.346,72.594,49.916,72.762,49.482,72.92z M51.439,72.115c0.027-0.061,0.043-0.129,0.043-0.199 c0-0.277-0.225-0.5-0.5-0.5h-1.5v-2h1.5c0.275,0,0.5-0.225,0.5-0.5c0-0.277-0.225-0.5-0.5-0.5h-1.5v-6h1.5 c0.275,0,0.5-0.225,0.5-0.5v-2.5h0.5c0.275,0,0.5-0.225,0.5-0.5v-9.5h9.982c1.654,0,3-1.346,3-3s-1.346-3-3-3H59.76 c0.133-0.426,0.205-0.887,0.205-1.342c0-2.455-1.99-4.451-4.438-4.451c-1.176,0-2.246,0.465-3.045,1.229v-3.935 c0-0.277-0.225-0.5-0.5-0.5h-2.5v-9.5c0-0.277-0.225-0.5-0.5-0.5s-0.5,0.223-0.5,0.5v2.943c-0.859-1.715-2-4.307-2-5.973v-2.219 c12.236,2.93,21.363,13.95,21.363,27.07C67.846,58.016,61.104,67.742,51.439,72.115z M58.57,44.166 c0.09,0.154,0.256,0.25,0.434,0.25h3.461c1.104,0,2,0.896,2,2c0,1.102-0.896,2-2,2h-9.982v-7.918 c0.574-1.131,1.729-1.875,3.045-1.875c1.896,0,3.438,1.549,3.438,3.451c0,0.562-0.148,1.158-0.396,1.594 C58.48,43.822,58.482,44.012,58.57,44.166z" ></path> </svg>