<?xml version="1.0" encoding="utf-8"?> <!-- Generator: IcoMoon.io --> <!DOCTYPE svg PUBLIC "-//W3C//DTD SVG 1.1//EN" "http://www.w3.org/Graphics/SVG/1.1/DTD/svg11.dtd"> <svg version="1.1" id="Layer_1" xmlns="http://www.w3.org/2000/svg" xmlns:xlink="http://www.w3.org/1999/xlink" x="0px" y="0px" width="80px" height="80px" viewBox="0 0 80 80" enable-background="new 0 0 80 80" xml:space="preserve" fill="#423e3b"> <path d="M28.983,67.416h-4c-0.276,0-0.5,0.223-0.5,0.5c0,0.275,0.224,0.5,0.5,0.5h4c0.275,0,0.5-0.225,0.5-0.5 C29.483,67.639,29.259,67.416,28.983,67.416zM38.983,32.417h2c0.275,0,0.5-0.225,0.5-0.5c0-0.277-0.225-0.5-0.5-0.5h-2c-0.276,0-0.5,0.223-0.5,0.5 C38.483,32.192,38.707,32.417,38.983,32.417zM41.983,35.417h-4c-0.276,0-0.5,0.223-0.5,0.5c0,0.275,0.224,0.5,0.5,0.5h4c0.275,0,0.5-0.225,0.5-0.5 C42.483,35.639,42.259,35.417,41.983,35.417zM41.983,39.417h-4c-0.276,0-0.5,0.223-0.5,0.5c0,0.275,0.224,0.5,0.5,0.5h4c0.275,0,0.5-0.225,0.5-0.5 C42.483,39.639,42.259,39.417,41.983,39.417zM41.983,43.416h-4c-0.276,0-0.5,0.223-0.5,0.5c0,0.275,0.224,0.5,0.5,0.5h4c0.275,0,0.5-0.225,0.5-0.5 C42.483,43.639,42.259,43.416,41.983,43.416zM41.983,47.416h-4c-0.276,0-0.5,0.223-0.5,0.5c0,0.275,0.224,0.5,0.5,0.5h4c0.275,0,0.5-0.225,0.5-0.5 C42.483,47.639,42.259,47.416,41.983,47.416zM41.983,51.416h-4c-0.276,0-0.5,0.223-0.5,0.5c0,0.275,0.224,0.5,0.5,0.5h4c0.275,0,0.5-0.225,0.5-0.5 C42.483,51.639,42.259,51.416,41.983,51.416zM41.983,55.416h-4c-0.276,0-0.5,0.223-0.5,0.5c0,0.275,0.224,0.5,0.5,0.5h4c0.275,0,0.5-0.225,0.5-0.5 C42.483,55.639,42.259,55.416,41.983,55.416zM41.983,59.416h-4c-0.276,0-0.5,0.223-0.5,0.5c0,0.275,0.224,0.5,0.5,0.5h4c0.275,0,0.5-0.225,0.5-0.5 C42.483,59.639,42.259,59.416,41.983,59.416zM41.983,63.416h-4c-0.276,0-0.5,0.223-0.5,0.5c0,0.275,0.224,0.5,0.5,0.5h4c0.275,0,0.5-0.225,0.5-0.5 C42.483,63.639,42.259,63.416,41.983,63.416zM41.983,67.416h-4c-0.276,0-0.5,0.223-0.5,0.5c0,0.275,0.224,0.5,0.5,0.5h4c0.275,0,0.5-0.225,0.5-0.5 C42.483,67.639,42.259,67.416,41.983,67.416zM41.983,71.416h-4c-0.276,0-0.5,0.223-0.5,0.5c0,0.275,0.224,0.5,0.5,0.5h4c0.275,0,0.5-0.225,0.5-0.5 C42.483,71.639,42.259,71.416,41.983,71.416zM33.983,55.416h-1c-0.276,0-0.5,0.223-0.5,0.5c0,0.275,0.224,0.5,0.5,0.5h1c0.275,0,0.5-0.225,0.5-0.5 C34.483,55.639,34.259,55.416,33.983,55.416zM33.983,59.416h-1c-0.276,0-0.5,0.223-0.5,0.5c0,0.275,0.224,0.5,0.5,0.5h1c0.275,0,0.5-0.225,0.5-0.5 C34.483,59.639,34.259,59.416,33.983,59.416zM25.968,60.361c0.13,0,0.26-0.055,0.351-0.15c0.095-0.09,0.149-0.221,0.149-0.35 c0-0.135-0.055-0.266-0.149-0.355c-0.186-0.186-0.521-0.186-0.705,0c-0.096,0.09-0.146,0.221-0.146,0.355 c0,0.129,0.05,0.26,0.146,0.354C25.708,60.307,25.833,60.361,25.968,60.361zM53.613,59.506c-0.096,0.09-0.15,0.221-0.15,0.355c0,0.129,0.055,0.26,0.15,0.35 c0.09,0.096,0.22,0.15,0.354,0.15c0.13,0,0.26-0.055,0.351-0.15c0.095-0.09,0.149-0.221,0.149-0.35 c0-0.135-0.055-0.266-0.149-0.355C54.133,59.32,53.798,59.32,53.613,59.506zM33.983,63.416h-1c-0.276,0-0.5,0.223-0.5,0.5c0,0.275,0.224,0.5,0.5,0.5h1c0.275,0,0.5-0.225,0.5-0.5 C34.483,63.639,34.259,63.416,33.983,63.416zM33.983,67.416h-1c-0.276,0-0.5,0.223-0.5,0.5c0,0.275,0.224,0.5,0.5,0.5h1c0.275,0,0.5-0.225,0.5-0.5 C34.483,67.639,34.259,67.416,33.983,67.416zM33.983,71.416h-1c-0.276,0-0.5,0.223-0.5,0.5c0,0.275,0.224,0.5,0.5,0.5h1c0.275,0,0.5-0.225,0.5-0.5 C34.483,71.639,34.259,71.416,33.983,71.416zM46.983,55.416h-1c-0.276,0-0.5,0.223-0.5,0.5c0,0.275,0.224,0.5,0.5,0.5h1c0.275,0,0.5-0.225,0.5-0.5 C47.483,55.639,47.259,55.416,46.983,55.416zM46.983,59.416h-1c-0.276,0-0.5,0.223-0.5,0.5c0,0.275,0.224,0.5,0.5,0.5h1c0.275,0,0.5-0.225,0.5-0.5 C47.483,59.639,47.259,59.416,46.983,59.416zM46.983,63.416h-1c-0.276,0-0.5,0.223-0.5,0.5c0,0.275,0.224,0.5,0.5,0.5h1c0.275,0,0.5-0.225,0.5-0.5 C47.483,63.639,47.259,63.416,46.983,63.416zM46.983,67.416h-1c-0.276,0-0.5,0.223-0.5,0.5c0,0.275,0.224,0.5,0.5,0.5h1c0.275,0,0.5-0.225,0.5-0.5 C47.483,67.639,47.259,67.416,46.983,67.416zM46.983,71.416h-1c-0.276,0-0.5,0.223-0.5,0.5c0,0.275,0.224,0.5,0.5,0.5h1c0.275,0,0.5-0.225,0.5-0.5 C47.483,71.639,47.259,71.416,46.983,71.416zM50.983,68.416h4c0.275,0,0.5-0.225,0.5-0.5c0-0.277-0.225-0.5-0.5-0.5h-4c-0.276,0-0.5,0.223-0.5,0.5 C50.483,68.191,50.707,68.416,50.983,68.416zM44.167,18.203c-0.339-0.853-0.932-1.579-1.684-2.083v-2.261c0-1.207-0.86-2.217-2-2.449V4.916 c0-0.276-0.225-0.5-0.5-0.5c-0.276,0-0.5,0.224-0.5,0.5v6.494c-1.14,0.232-2,1.242-2,2.449v2.261 c-0.754,0.506-1.348,1.233-1.687,2.088c-13.919,2.042-24.643,14.054-24.643,28.53c0,15.906,12.94,28.846,28.846,28.846 c15.906,0,28.847-12.939,28.847-28.846C68.847,32.249,58.104,20.23,44.167,18.203z M56.798,38.711 c-0.009-0.076-0.018-0.262-0.018-0.361c0-1.305,1.046-2.434,2.357-2.434c0.003,0,0.006,0,0.009,0c0.044,0,0.087,0.082,0.132,0.084 c0.141,0.008,0.277,0.027,0.378-0.07c0.102-0.098,0.157-0.232,0.152-0.373l-0.006-0.107c-0.002-0.025-0.004-0.049-0.004-0.076 c0-1.996,1.071-3.885,2.721-4.992c2.732,3.748,4.546,8.203,5.123,13.035H55.466c-1.104,0-2-0.896-2-2c0-1.103,0.896-2,2-2h0.861 c0.276,0,0.5-0.24,0.5-0.518C56.827,38.84,56.816,38.764,56.798,38.711z M38.483,13.859c0-0.827,0.673-1.5,1.5-1.5 s1.5,0.673,1.5,1.5v1.763c-0.471-0.167-0.974-0.263-1.5-0.263c-0.527,0-1.03,0.096-1.5,0.263V13.859z M36.483,19.859 c0-1.93,1.569-3.5,3.5-3.5c1.93,0,3.5,1.57,3.5,3.5v0.531c-1.012-0.65-2.211-1.032-3.5-1.032s-2.489,0.381-3.5,1.032V19.859z M39.983,20.359c2.767,0,5.055,2.057,5.436,4.721c-1.542-1.082-3.414-1.721-5.436-1.721s-3.895,0.639-5.437,1.721 C34.928,22.417,37.216,20.359,39.983,20.359z M39.983,27.36c-3.033,0-5.5,2.467-5.5,5.5v18.556h-1.155 c-0.658,0-1.278,0.127-1.845,0.354V32.86c0-4.688,3.812-8.5,8.5-8.5c4.687,0,8.5,3.812,8.5,8.5v18.933 c-0.579-0.24-1.214-0.377-1.881-0.377h-1.119V32.86C45.483,29.827,43.016,27.36,39.983,27.36z M23.454,45.145 c0.09,0.135,0.239,0.217,0.4,0.221c1.072,0.031,1.944,0.938,1.944,2.021c0,1.119-0.897,2.029-2,2.029H12.285 c-0.084-0.883-0.131-1.775-0.131-2.678c0-3.1,0.511-6.08,1.449-8.867c1.12-0.951,2.578-1.512,4.029-1.512 c3.4,0,6.167,2.766,6.167,6.166c0,0.732-0.135,1.461-0.399,2.164C23.344,44.842,23.363,45.012,23.454,45.145z M12.404,50.416 h11.395c1.654,0,3-1.359,3-3.029c0-1.396-0.972-2.596-2.27-2.93c0.18-0.633,0.271-1.281,0.271-1.932 c0-3.951-3.215-7.166-7.167-7.166c-1.203,0-2.374,0.311-3.419,0.887c3.609-8.834,11.629-15.411,21.31-16.983 c-0.025,0.195-0.04,0.393-0.04,0.596v1.32c-1.23,1.184-2,2.842-2,4.68v0.09c-1.842,1.734-3,4.188-3,6.91v19.451 c-1.011,0.719-1.719,1.818-1.93,3.105h-5.57c-0.276,0-0.5,0.223-0.5,0.5v7.5h-0.5c-0.276,0-0.5,0.223-0.5,0.5v3.596 C16.629,63.18,13.301,57.178,12.404,50.416z M28.483,56.416v7h-5v-7H28.483z M29.148,72.383c0.194-0.068,0.335-0.25,0.335-0.467 c0-0.277-0.225-0.5-0.5-0.5h-1.861c-1.65-0.865-3.204-1.887-4.639-3.053v-3.947h6.5c0.275,0,0.5-0.225,0.5-0.5v-7.693 c0-2.135,1.688-3.807,3.845-3.807h1.655c0.275,0,0.5-0.225,0.5-0.5V32.86c0-2.482,2.019-4.5,4.5-4.5c2.48,0,4.5,2.018,4.5,4.5 v19.056c0,0.275,0.224,0.5,0.5,0.5h1.619c2.14,0,3.881,1.707,3.881,3.807v7.693c0,0.275,0.224,0.5,0.5,0.5h6.5v3.975 c-1.426,1.154-2.968,2.168-4.604,3.025h-1.896c-0.276,0-0.5,0.223-0.5,0.5c0,0.227,0.152,0.41,0.358,0.471 c-3.334,1.414-6.998,2.197-10.842,2.197C36.152,74.584,32.485,73.799,29.148,72.383z M51.483,63.416v-7h5v7H51.483z M58.483,67.541 v-3.625c0-0.277-0.225-0.5-0.5-0.5h-0.5v-7.5c0-0.277-0.225-0.5-0.5-0.5h-5.574c-0.217-1.254-0.928-2.342-1.926-3.066V32.86 c0-2.723-1.158-5.176-3-6.91v-0.09c0-1.838-0.771-3.496-2-4.68v-1.32c0-0.205-0.016-0.404-0.042-0.602 c7.06,1.137,13.239,4.934,17.474,10.329c-1.844,1.234-3.011,3.262-3.109,5.479c-1.694,0.16-3.024,1.602-3.025,3.352h-0.314 c-1.654,0-3,1.346-3,3c0,1.654,1.346,3,3,3h12.28c0.063,0.766,0.101,1.539,0.101,2.322C67.847,55.004,64.223,62.438,58.483,67.541z " ></path> </svg>