<?xml version="1.0" encoding="utf-8"?> <!-- Generator: IcoMoon.io --> <!DOCTYPE svg PUBLIC "-//W3C//DTD SVG 1.1//EN" "http://www.w3.org/Graphics/SVG/1.1/DTD/svg11.dtd"> <svg version="1.1" id="Layer_1" xmlns="http://www.w3.org/2000/svg" xmlns:xlink="http://www.w3.org/1999/xlink" x="0px" y="0px" width="80px" height="80px" viewBox="0 0 80 80" enable-background="new 0 0 80 80" xml:space="preserve" fill="#423e3b"> <path d="M46.483,18.637v-3.721c0-0.277-0.225-0.5-0.5-0.5h-2.549c-0.198-1.551-1.411-2.785-2.951-3.014V4.916 c0-0.277-0.225-0.5-0.5-0.5c-0.276,0-0.5,0.223-0.5,0.5v6.48c-1.557,0.217-2.787,1.457-2.986,3.02h-2.514 c-0.276,0-0.5,0.223-0.5,0.5v3.73c-12.775,2.963-22.329,14.428-22.329,28.092c0,15.906,12.94,28.846,28.846,28.846 c15.906,0,28.847-12.939,28.847-28.846C68.847,33.062,59.276,21.588,46.483,18.637z M57.466,37.416h-7c-1.104,0-2-0.896-2-2 s0.896-2,2-2H64.44c1.507,2.752,2.561,5.785,3.064,9H57.466c-1.104,0-2-0.896-2-2s0.896-2,2-2c0.275,0,0.5-0.225,0.5-0.5 C57.966,37.639,57.741,37.416,57.466,37.416z M43.483,15.416h2v3h-2V15.416z M42.483,15.416v3h-2v-3H42.483z M39.966,12.359 c1.227,0,2.244,0.889,2.455,2.057h-4.91C37.721,13.248,38.739,12.359,39.966,12.359z M37.483,15.416h2v3h-2V15.416z M44.663,19.416 l-2.223,2h-4.949l-2.223-2H44.663z M48.172,73.359l-2.499-2.5l4.293-4.293l3.094,3.094c0.207,0.449,0.418,0.887,0.632,1.312 C51.958,71.955,50.111,72.762,48.172,73.359z M26.253,70.939c0.207-0.412,0.41-0.838,0.611-1.271l3.102-3.102l4.293,4.293 l-2.484,2.484C29.833,72.742,27.987,71.928,26.253,70.939z M30.902,58.416h0.913l2.443,2.443l-4.293,4.293l-0.922-0.922 C29.7,62.373,30.322,60.428,30.902,58.416z M30.483,57.416h-2v-3h2V57.416z M41.815,58.416l2.443,2.443l-3.65,3.65 c-0.041-0.02-0.082-0.037-0.125-0.053v-6.041H41.815z M40.483,57.416v-3h2v3H40.483z M41.315,65.217l3.65-3.65l4.293,4.293 l-4.293,4.293l-3.65-3.65c0.094-0.195,0.15-0.412,0.15-0.643S41.409,65.412,41.315,65.217z M43.229,58.416h3.473l-1.736,1.736 L43.229,58.416z M45.483,57.416h-2v-3h2V57.416z M43.116,53.416l1.85-1.85l1.85,1.85H43.116z M41.702,53.416h-1.219v-6.154 c0.043-0.016,0.084-0.033,0.125-0.053l3.65,3.65L41.702,53.416z M40.483,44.457v-7.195c0.043-0.016,0.084-0.033,0.125-0.053 l3.65,3.65l-3.65,3.65C40.567,44.49,40.526,44.473,40.483,44.457z M40.319,25.506c-0.039-0.039-0.086-0.066-0.135-0.09h2.371 c0.102,0.785,0.223,1.688,0.363,2.689L40.319,25.506z M40.318,66.211c-0.091,0.096-0.22,0.15-0.355,0.15 c-0.13,0-0.26-0.055-0.35-0.15c-0.095-0.09-0.15-0.221-0.15-0.35c0-0.135,0.056-0.26,0.15-0.355c0.185-0.186,0.52-0.186,0.705,0 c0.095,0.096,0.149,0.221,0.149,0.355C40.468,65.99,40.413,66.121,40.318,66.211z M38.616,66.502l-3.65,3.65l-4.293-4.293 l4.293-4.293l3.65,3.65c-0.094,0.195-0.15,0.412-0.15,0.643S38.522,66.307,38.616,66.502z M39.613,35.506 c0.189-0.186,0.52-0.186,0.705,0c0.095,0.09,0.145,0.221,0.145,0.355c0,0.129-0.05,0.26-0.145,0.35 c-0.091,0.096-0.22,0.15-0.351,0.15c-0.135,0-0.265-0.055-0.354-0.15c-0.095-0.096-0.146-0.221-0.146-0.35 C39.468,35.727,39.519,35.602,39.613,35.506z M39.612,25.506l-2.6,2.6c0.14-1.002,0.261-1.904,0.363-2.689h2.371 C39.698,25.439,39.651,25.467,39.612,25.506z M40.463,45.861c0,0.129-0.05,0.26-0.145,0.35c-0.095,0.096-0.22,0.15-0.351,0.15 c-0.135,0-0.26-0.055-0.354-0.15c-0.095-0.09-0.15-0.221-0.15-0.35c0-0.135,0.056-0.266,0.15-0.355c0.185-0.186,0.52-0.186,0.705,0 C40.413,45.596,40.463,45.727,40.463,45.861z M39.483,37.271v7.174c-0.055,0.02-0.108,0.039-0.16,0.064l-3.65-3.65l3.65-3.65 C39.375,37.234,39.429,37.254,39.483,37.271z M39.483,47.271v6.145h-1.254l-2.557-2.557l3.65-3.65 C39.375,47.234,39.429,47.254,39.483,47.271z M39.483,54.416v3h-2v-3H39.483z M36.815,53.416h-3.699l1.85-1.85L36.815,53.416z M34.483,54.416h2v3h-2V54.416z M36.702,58.416l-1.736,1.736l-1.736-1.736H36.702z M35.673,60.859l2.443-2.443h1.367v6.029 c-0.055,0.02-0.108,0.039-0.16,0.064L35.673,60.859z M42.428,24.416h-4.924c0.114-0.906,0.194-1.59,0.242-2h4.439 C42.232,22.826,42.313,23.51,42.428,24.416z M39.483,27.049v7.396c-0.055,0.02-0.108,0.039-0.16,0.064l-2.832-2.832 c0.101-0.668,0.196-1.309,0.285-1.924L39.483,27.049z M38.616,35.217c-0.094,0.195-0.15,0.412-0.15,0.643s0.057,0.447,0.15,0.643 l-3.518,3.518c0.461-2.533,0.861-4.938,1.203-7.117L38.616,35.217z M38.616,45.217c-0.094,0.195-0.15,0.412-0.15,0.643 s0.057,0.447,0.15,0.643l-3.65,3.65l-1.584-1.584c0.51-2.309,0.975-4.6,1.394-6.812l0.19-0.189L38.616,45.217z M34.259,50.859 l-1.837,1.836c0.242-0.988,0.476-1.98,0.701-2.973L34.259,50.859z M33.483,54.416v3h-2v-3H33.483z M29.259,65.859l-1.319,1.32 c0.25-0.619,0.493-1.258,0.733-1.906L29.259,65.859z M32.875,73.656l2.091-2.09l2.931,2.93 C36.175,74.367,34.496,74.086,32.875,73.656z M35.673,70.859l3.65-3.65c0.052,0.025,0.105,0.045,0.16,0.062v7.301 c-0.034-0.002-0.067-0.002-0.101-0.004L35.673,70.859z M40.483,74.572v-7.301c0-0.018,0.203-0.037,0.255-0.062l3.697,3.65 l-3.776,3.709C40.601,74.57,40.542,74.572,40.483,74.572z M42.029,74.502l2.937-2.936l2.105,2.105 C45.444,74.1,43.758,74.377,42.029,74.502z M50.673,65.859l0.582-0.584c0.24,0.648,0.483,1.281,0.732,1.898L50.673,65.859z M49.966,65.152l-4.293-4.293l2.443-2.443h0.913c0.579,2.01,1.194,3.967,1.851,5.822L49.966,65.152z M48.483,57.416h-2v-3h2V57.416z M45.673,50.859l1.135-1.135c0.225,0.99,0.459,1.98,0.7,2.969L45.673,50.859z M44.966,50.152l-3.65-3.65 c0.094-0.195,0.15-0.412,0.15-0.643s-0.057-0.447-0.15-0.643l3.65-3.65l0.189,0.189c0.419,2.213,0.883,4.504,1.394,6.812 L44.966,50.152z M41.315,36.502c0.094-0.195,0.15-0.412,0.15-0.643s-0.057-0.447-0.15-0.643l2.314-2.314 c0.341,2.18,0.74,4.584,1.203,7.117L41.315,36.502z M40.608,34.51c-0.041-0.02-0.082-0.037-0.125-0.053v-7.373l2.671,2.672 c0.089,0.613,0.185,1.254,0.286,1.922L40.608,34.51z M34.483,15.416h2v3h-2V15.416z M12.882,40.416h5.584c1.103,0,2,0.896,2,2 s-0.897,2-2,2c-0.276,0-0.5,0.223-0.5,0.5c0,0.275,0.224,0.5,0.5,0.5h7c1.103,0,2,0.896,2,2s-0.897,2-2,2H12.285 c-0.084-0.883-0.131-1.775-0.131-2.678C12.154,44.564,12.408,42.447,12.882,40.416z M12.404,50.416h13.062c1.654,0,3-1.346,3-3 s-1.346-3-3-3H20.7c0.476-0.531,0.766-1.232,0.766-2c0-1.654-1.346-3-3-3h-5.334c2.699-9.895,10.736-17.605,20.81-19.85l2.832,2.549 c-0.09,0.793-0.398,3.43-0.938,7.166L35.8,29.318l0.027,0.027c-0.738,5.1-1.901,12.219-3.519,19.461l-0.051,0.051l0.032,0.033 c-0.338,1.51-0.7,3.023-1.078,4.525h-3.229c-0.276,0-0.5,0.223-0.5,0.5v4c0,0.275,0.224,0.5,0.5,0.5h1.881 c-1.3,4.469-2.792,8.635-4.481,12.01C18.44,66.127,13.524,58.863,12.404,50.416z M54.562,70.463 c-1.695-3.385-3.192-7.562-4.496-12.047h1.918c0.275,0,0.5-0.225,0.5-0.5v-4c0-0.277-0.225-0.5-0.5-0.5h-3.27 c-3.531-14.064-5.316-29.182-5.557-31.301l2.846-2.561c7.562,1.67,13.979,6.418,17.862,12.861H50.466c-1.654,0-3,1.346-3,3 s1.346,3,3,3h4.766c-0.477,0.531-0.766,1.232-0.766,2c0,1.654,1.346,3,3,3h10.178c0.131,1.09,0.203,2.197,0.203,3.322 C67.847,56.758,62.525,65.557,54.562,70.463z M49.483,57.416v-3h2v3H49.483z" ></path></svg>