<?xml version="1.0" encoding="utf-8"?> <!-- Generator: IcoMoon.io --> <!DOCTYPE svg PUBLIC "-//W3C//DTD SVG 1.1//EN" "http://www.w3.org/Graphics/SVG/1.1/DTD/svg11.dtd"> <svg version="1.1" id="Layer_1" xmlns="http://www.w3.org/2000/svg" xmlns:xlink="http://www.w3.org/1999/xlink" x="0px" y="0px" width="80px" height="80px" viewBox="0 0 80 80" enable-background="new 0 0 80 80" xml:space="preserve" fill="#423e3b"> <path d="M39.983,36.792c-0.276,0-0.5,0.223-0.5,0.5v2c0,0.275,0.224,0.5,0.5,0.5c0.275,0,0.5-0.225,0.5-0.5v-2 C40.483,37.014,40.259,36.792,39.983,36.792zM43.983,36.792c-0.276,0-0.5,0.223-0.5,0.5v2c0,0.275,0.224,0.5,0.5,0.5c0.275,0,0.5-0.225,0.5-0.5v-2 C44.483,37.014,44.259,36.792,43.983,36.792zM35.983,36.792c-0.276,0-0.5,0.223-0.5,0.5v2c0,0.275,0.224,0.5,0.5,0.5c0.275,0,0.5-0.225,0.5-0.5v-2 C36.483,37.014,36.259,36.792,35.983,36.792zM31.983,39.792c0.275,0,0.5-0.225,0.5-0.5v-2c0-0.277-0.225-0.5-0.5-0.5c-0.276,0-0.5,0.223-0.5,0.5v2 C31.483,39.567,31.707,39.792,31.983,39.792zM39.983,19.791c0.275,0,0.5-0.224,0.5-0.5v-2c0-0.276-0.225-0.5-0.5-0.5c-0.276,0-0.5,0.224-0.5,0.5v2 C39.483,19.567,39.707,19.791,39.983,19.791zM43.983,19.791c0.275,0,0.5-0.224,0.5-0.5v-2c0-0.276-0.225-0.5-0.5-0.5c-0.276,0-0.5,0.224-0.5,0.5v2 C43.483,19.567,43.707,19.791,43.983,19.791zM47.983,19.791c0.275,0,0.5-0.224,0.5-0.5v-2c0-0.276-0.225-0.5-0.5-0.5c-0.276,0-0.5,0.224-0.5,0.5v2 C47.483,19.567,47.707,19.791,47.983,19.791zM35.983,19.791c0.275,0,0.5-0.224,0.5-0.5v-2c0-0.276-0.225-0.5-0.5-0.5c-0.276,0-0.5,0.224-0.5,0.5v2 C35.483,19.567,35.707,19.791,35.983,19.791zM31.983,19.791c0.275,0,0.5-0.224,0.5-0.5v-2c0-0.276-0.225-0.5-0.5-0.5c-0.276,0-0.5,0.224-0.5,0.5v2 C31.483,19.567,31.707,19.791,31.983,19.791zM47.983,36.792c-0.276,0-0.5,0.223-0.5,0.5v2c0,0.275,0.224,0.5,0.5,0.5c0.275,0,0.5-0.225,0.5-0.5v-2 C48.483,37.014,48.259,36.792,47.983,36.792zM39.983,59.791c-0.276,0-0.5,0.223-0.5,0.5v2c0,0.275,0.224,0.5,0.5,0.5c0.275,0,0.5-0.225,0.5-0.5v-2 C40.483,60.014,40.259,59.791,39.983,59.791zM43.983,59.791c-0.276,0-0.5,0.223-0.5,0.5v2c0,0.275,0.224,0.5,0.5,0.5c0.275,0,0.5-0.225,0.5-0.5v-2 C44.483,60.014,44.259,59.791,43.983,59.791zM47.983,59.791c-0.276,0-0.5,0.223-0.5,0.5v2c0,0.275,0.224,0.5,0.5,0.5c0.275,0,0.5-0.225,0.5-0.5v-2 C48.483,60.014,48.259,59.791,47.983,59.791zM35.983,59.791c-0.276,0-0.5,0.223-0.5,0.5v2c0,0.275,0.224,0.5,0.5,0.5c0.275,0,0.5-0.225,0.5-0.5v-2 C36.483,60.014,36.259,59.791,35.983,59.791zM31.983,59.791c-0.276,0-0.5,0.223-0.5,0.5v2c0,0.275,0.224,0.5,0.5,0.5c0.275,0,0.5-0.225,0.5-0.5v-2 C32.483,60.014,32.259,59.791,31.983,59.791zM31.983,34.792h16c0.275,0,0.5-0.225,0.5-0.5v-10c0-0.277-0.225-0.5-0.5-0.5h-1.5v-1.5 c0-0.277-0.225-0.5-0.5-0.5h-12c-0.276,0-0.5,0.223-0.5,0.5v1.5h-1.5c-0.276,0-0.5,0.223-0.5,0.5v10 C31.483,34.567,31.707,34.792,31.983,34.792z M34.483,24.291v-1.5h11v1.5c0,0.275,0.224,0.5,0.5,0.5h1.5v9H36.336 c-1.04-3.077-1.888-6.163-2.565-9h0.213C34.259,24.791,34.483,24.566,34.483,24.291z M32.483,24.791h0.244 c0.661,2.811,1.481,5.863,2.495,8.915c0.01,0.029,0.021,0.057,0.03,0.086h-2.77V24.791zM52.483,21.374v-6.583h1.5c0.275,0,0.5-0.224,0.5-0.5s-0.225-0.5-0.5-0.5h-1.5v-2h0.5 c0.275,0,0.5-0.224,0.5-0.5s-0.225-0.5-0.5-0.5h-0.5v-2.5c0-0.276-0.225-0.5-0.5-0.5h-0.5v-3.5c0-0.276-0.225-0.5-0.5-0.5h-4 c-0.276,0-0.5,0.224-0.5,0.5v3.5h-0.5c-0.276,0-0.5,0.224-0.5,0.5v2.5h-0.5c-0.276,0-0.5,0.224-0.5,0.5s0.224,0.5,0.5,0.5h0.5v2 h-11v-2h0.5c0.275,0,0.5-0.224,0.5-0.5s-0.225-0.5-0.5-0.5h-0.5v-2.5c0-0.276-0.225-0.5-0.5-0.5h-0.5v-3.5 c0-0.276-0.225-0.5-0.5-0.5h-4c-0.276,0-0.5,0.224-0.5,0.5v3.5h-0.5c-0.276,0-0.5,0.224-0.5,0.5v2.5h-0.5 c-0.276,0-0.5,0.224-0.5,0.5s0.224,0.5,0.5,0.5h0.5v2h-1.5c-0.276,0-0.5,0.224-0.5,0.5s0.224,0.5,0.5,0.5h1.5v6.6 c-9.651,4.67-16.329,14.551-16.329,25.973c0,15.906,12.94,28.846,28.846,28.846c15.906,0,28.847-12.939,28.847-28.846 C68.847,35.928,62.152,26.037,52.483,21.374z M67.422,52.174c-1.147-0.68-2.23-1.514-3.248-2.484 c1.254-1.713,2.395-3.941,3.302-6.844c0.241,1.471,0.371,2.979,0.371,4.518C67.847,49.004,67.696,50.609,67.422,52.174z M52.483,30.174c0.93,2.934,1.93,5.616,3,8.04v15.808c-0.457,0.057-0.929,0.088-1.419,0.088c-0.541,0-1.064-0.053-1.581-0.129 V30.174z M62.828,49.773c-0.686,0.842-1.464,1.611-2.345,2.26v-5.021C61.241,48.025,62.022,48.947,62.828,49.773z M59.483,52.691 c-0.901,0.523-1.899,0.92-3,1.16v-13.49c0.949,1.935,1.951,3.677,3,5.24V52.691z M52.483,54.992 c0.521,0.068,1.046,0.117,1.581,0.117c0.437,0,0.914-0.025,1.419-0.084v15.471c-0.959,0.645-1.963,1.225-3,1.748V54.992z M56.483,54.865c0.947-0.193,1.965-0.523,3-1.055v13.424c-0.938,0.92-1.94,1.773-3,2.555V54.865z M60.483,53.234 c1.017-0.652,2.034-1.516,3-2.658v11.725c-0.887,1.389-1.889,2.695-3,3.902V53.234z M64.483,51.311 c0.887,0.74,1.801,1.375,2.74,1.902c-0.563,2.623-1.493,5.113-2.74,7.408V51.311z M59.786,27.791c1.214,1.227,2.312,2.566,3.283,4 h-3.604c-1.104,0-2-0.896-2-2c0-1.104,0.896-2,2-2H59.786z M58.818,26.863c-1.344,0.297-2.353,1.496-2.353,2.928 c0,1.655,1.346,3,3,3h4.25c1.493,2.42,2.626,5.086,3.324,7.922c-0.614,2.425-1.709,5.595-3.596,8.246 c-5.306-5.549-8.796-14.625-10.961-22.348v-4.13C54.798,23.647,56.928,25.127,58.818,26.863z M47.483,4.791h3v3h-3V4.791z M46.483,8.791h5v2h-5V8.791z M51.483,11.791v2h-5v-2H51.483z M51.483,14.791v57.932c-0.973,0.441-1.973,0.832-3,1.162v-6.594 c0-0.277-0.225-0.5-0.5-0.5h-1.5v-1.5c0-0.277-0.225-0.5-0.5-0.5h-12c-0.276,0-0.5,0.223-0.5,0.5v1.5h-1.5 c-0.276,0-0.5,0.223-0.5,0.5v6.443v0.139c-1.028-0.332-2.028-0.723-3-1.166V54.791h2.982c0.006,0,0.012-0.002,0.018-0.002v2.502 c0,0.275,0.224,0.5,0.5,0.5h16c0.275,0,0.5-0.225,0.5-0.5v-13c0-0.277-0.225-0.5-0.5-0.5h-1.5v-1.5c0-0.277-0.225-0.5-0.5-0.5h-12 c-0.276,0-0.5,0.223-0.5,0.5v1.5h-1.5c-0.276,0-0.5,0.223-0.5,0.5v4.5c-0.006,0-0.012,0-0.018,0h-2.982v-34H51.483z M36.483,65.791 h3v9.406c-1.015-0.02-2.015-0.092-3-0.217V65.791z M35.483,74.838c-1.021-0.168-2.021-0.393-3-0.668v-6.379h1.5 c0.275,0,0.5-0.225,0.5-0.5v-1.5h1V74.838z M40.483,65.791h3v9.193c-0.985,0.123-1.986,0.195-3,0.213V65.791z M44.483,65.791h1v1.5 c0,0.275,0.224,0.5,0.5,0.5h1.5v6.389c-0.98,0.273-1.98,0.498-3,0.664V65.791z M32.483,48.973v-4.182h1.5 c0.275,0,0.5-0.225,0.5-0.5v-1.5h1v14h-3v-2.182c1.153-0.418,1.982-1.521,1.982-2.818S33.637,49.391,32.483,48.973z M45.983,44.791 h1.5v7.154c-2.921-2.027-5.357-5.314-7.375-9.154h5.375v1.5C45.483,44.566,45.707,44.791,45.983,44.791z M43.483,49.699v7.092h-3 v-11.23C41.44,47.135,42.44,48.516,43.483,49.699z M44.483,50.764c0.966,0.961,1.966,1.764,3,2.404v3.623h-3V50.764z M38.944,42.791c0.178,0.35,0.357,0.691,0.539,1.025v12.975h-3v-14H38.944z M29.483,4.791h3v3h-3V4.791z M28.483,8.791h5v2h-5 V8.791z M33.483,11.791v2h-5v-2H33.483z M27.483,22.498v26.293h-4.784c0.477-0.531,0.767-1.232,0.767-2c0-1.654-1.346-3-3-3h-8.079 C13.586,34.469,19.412,26.578,27.483,22.498z M12.276,44.791h8.189c1.103,0,2,0.896,2,2s-0.897,2-2,2c-0.276,0-0.5,0.223-0.5,0.5 c0,0.275,0.224,0.5,0.5,0.5h11c1.103,0,2,0.896,2,2s-0.897,2-2,2H12.911c-0.49-2.064-0.757-4.215-0.757-6.428 C12.154,46.496,12.198,45.639,12.276,44.791z M13.168,54.791h14.315v17.436C20.553,68.723,15.279,62.41,13.168,54.791z" ></path> </svg>