<?xml version="1.0" encoding="utf-8"?> <!-- Generator: IcoMoon.io --> <!DOCTYPE svg PUBLIC "-//W3C//DTD SVG 1.1//EN" "http://www.w3.org/Graphics/SVG/1.1/DTD/svg11.dtd"> <svg version="1.1" id="Layer_1" xmlns="http://www.w3.org/2000/svg" xmlns:xlink="http://www.w3.org/1999/xlink" x="0px" y="0px" width="80px" height="80px" viewBox="0 0 80 80" enable-background="new 0 0 80 80" xml:space="preserve" fill="#423e3b"> <path d="M42.45,18.011c0.003-0.051,0.015-0.1,0.015-0.152c0-1.201-0.852-2.206-1.982-2.445V9.416h3.674 l-1.639,3.276c-0.077,0.155-0.069,0.339,0.022,0.486c0.091,0.147,0.252,0.237,0.425,0.237h5c0.189,0,0.362-0.107,0.447-0.276l2-4 c0.077-0.155,0.069-0.339-0.021-0.486s-0.252-0.237-0.426-0.237h-4.19l1.638-3.276c0.077-0.155,0.069-0.339-0.021-0.486 s-0.252-0.237-0.426-0.237h-6.982c-0.276,0-0.5,0.224-0.5,0.5v4v6.492c-1.147,0.226-2.018,1.238-2.018,2.451 c0,0.054,0.013,0.105,0.016,0.159C22.752,19.3,11.153,31.681,11.153,46.738c0,15.906,12.94,28.846,28.847,28.846 c15.905,0,28.847-12.939,28.847-28.846C68.847,31.658,57.212,19.261,42.45,18.011z M49.156,9.416l-1.5,3h-3.882l1.5-3H49.156z M40.482,5.416h5.674l-1.5,3h-4.174V5.416z M64.482,59.416v-3h1.627c-0.384,1.031-0.831,2.029-1.329,3H64.482z M65.541,49.369 c-0.034-0.129-0.041-0.156-0.041-0.256c0-0.844,0.673-1.529,1.5-1.529c0.263,0,0.567,0.105,0.818,0.27 c-0.104,2.631-0.576,5.166-1.364,7.562h-1.972v-5h0.673c0.15,0,0.292-0.068,0.387-0.184c0.096-0.115,0.133-0.268,0.104-0.414 C65.603,49.604,65.567,49.471,65.541,49.369z M67.982,46.76c-0.5-0.109-0.628-0.176-0.914-0.176c-1.379,0-2.534,1.135-2.534,2.529 c0,0.125-0.024,0.219-0.01,0.303h-0.542c-0.276,0-0.5,0.223-0.5,0.5v5.5h-7v-5.5c0-0.277-0.224-0.5-0.5-0.5h-1.5v-2.5 c0-0.277-0.224-0.5-0.5-0.5s-0.5,0.223-0.5,0.5v2.5h-1.5c-0.276,0-0.5,0.223-0.5,0.5v1.5h-1.518c-0.804,0-1.482-0.713-1.482-1.557 v-7.943c0-0.277-0.224-0.5-0.5-0.5h-1.534c-0.077-1.114-0.414-2.131-0.949-3h21.07c0.826,2.629,1.413,5.424,1.413,8.323 C67.982,46.746,67.982,46.752,67.982,46.76z M63.482,56.416v3h-2v-3H63.482z M60.482,56.416v3h-2v-3H60.482z M52.482,55.416v-5h3v5 H52.482z M54.482,56.416v3h-2v-3H54.482z M55.482,56.416h2v3h-2V56.416z M43.482,55.416v-7.5c0-0.277-0.224-0.5-0.5-0.5h-6 c-0.276,0-0.5,0.223-0.5,0.5v7.5h-8v-3h1.482c1.365,0,2.518-1.172,2.518-2.557v-7.443h1.482c0.276,0,0.5-0.225,0.5-0.5 c0-3.137,2.364-5.5,5.5-5.5s5.5,2.363,5.5,5.5c0,0.275,0.224,0.5,0.5,0.5h1.518v7.443c0,1.41,1.114,2.557,2.482,2.557h1.518v3 H43.482z M51.482,56.416v3h-2v-3H51.482z M48.482,56.416v3h-2v-3H48.482z M45.482,56.416v3h-2v-3H45.482z M37.482,55.416v-7h5v7 H37.482z M42.482,56.416v3h-2v-3H42.482z M39.482,56.416v3h-2v-3H39.482z M36.482,56.416v3h-2v-3H36.482z M33.482,56.416v3h-2v-3 H33.482z M30.482,56.416v3h-2v-3H30.482z M41.982,29.416h-4c-0.276,0-0.5,0.223-0.5,0.5v5.957c-0.752,0.293-1.427,0.719-2,1.252 v-9.708h9v9.744c-0.571-0.541-1.246-0.973-2-1.271v-5.973C42.482,29.638,42.259,29.416,41.982,29.416z M41.482,30.416v5.17 c-0.484-0.107-0.99-0.17-1.518-0.17c-0.515,0-1.008,0.059-1.482,0.162v-5.162H41.482z M35.325,26.416l-0.666-2h10.612l-0.667,2 H35.325z M46.439,24.074c0.003-0.01,0.002-0.02,0.004-0.029c0.003-0.01,0.009-0.018,0.011-0.027 c0.005-0.021,0.001-0.043,0.003-0.065c0-0.013,0.005-0.024,0.005-0.036h-0.004c0-0.195-0.108-0.379-0.293-0.459 c-0.039-0.018-2.705-1.217-4.377-3.9c0.157-0.167,0.283-0.362,0.39-0.568c11.134,0.867,20.452,8.3,24.062,18.427H45.482v-10.5 L46.439,24.074z M39.965,16.359c0.827,0,1.5,0.673,1.5,1.5s-0.673,1.5-1.5,1.5s-1.5-0.673-1.5-1.5S39.138,16.359,39.965,16.359z M38.944,20.136c0.312,0.141,0.656,0.224,1.021,0.224s0.709-0.083,1.021-0.224c0.956,1.507,2.186,2.591,3.162,3.28h-8.366 C36.759,22.727,37.987,21.643,38.944,20.136z M34.482,26.916v10.5H13.761c3.604-10.105,12.891-17.529,23.994-18.42 c0.109,0.209,0.238,0.407,0.399,0.577c-1.633,2.639-4.23,3.815-4.39,3.885c-0.185,0.082-0.292,0.264-0.292,0.459h-0.005 c0,0.014,0.006,0.025,0.006,0.039c0.002,0.021-0.002,0.042,0.002,0.062c0.002,0.01,0.009,0.018,0.011,0.027 c0.003,0.01,0.001,0.02,0.005,0.029L34.482,26.916z M13.431,38.416h21c-0.535,0.869-0.871,1.887-0.948,3h-1.5 c-0.276,0-0.5,0.223-0.5,0.5v7.943c0,0.844-0.694,1.557-1.518,1.557h-1.482v-1.5c0-0.277-0.224-0.5-0.5-0.5h-1.5v-2.5 c0-0.277-0.224-0.5-0.5-0.5s-0.5,0.223-0.5,0.5v2.5h-1.5c-0.276,0-0.5,0.223-0.5,0.5v5.5h-7v-5.5c0-0.277-0.224-0.5-0.5-0.5h-0.508 c0.016-0.084,0.025-0.178,0.025-0.303c0-1.387-1.122-2.514-2.5-2.514c-0.288,0-0.573,0.061-0.846,0.17 c0-0.012-0.001-0.021-0.001-0.031C12.153,43.84,12.604,41.045,13.431,38.416z M24.482,55.416v-5h3v5H24.482z M27.482,56.416v3h-2 v-3H27.482z M24.482,56.416v3h-2v-3H24.482z M21.482,56.416v3h-2v-3H21.482z M18.482,56.416v3h-2v-3H18.482z M15.22,59.416 c-0.498-0.971-0.945-1.969-1.329-3h1.592v3H15.22z M15.482,55.416h-1.938c-0.786-2.393-1.258-4.926-1.362-7.553 C12.429,47.705,12.738,47.6,13,47.6c0.827,0,1.5,0.678,1.5,1.514c0,0.1-0.007,0.127-0.042,0.256 c-0.026,0.102-0.062,0.234-0.104,0.449c-0.029,0.146,0.009,0.299,0.104,0.414s0.237,0.184,0.387,0.184h0.639V55.416z M26.482,71.037v0.035c-1.798-1.004-3.474-2.199-5-3.561v-0.008v-4.088h5V71.037z M33.482,73.807c-1.022-0.246-2.024-0.543-3-0.898 v-1.049c0-0.828,0.673-1.5,1.5-1.5s1.5,0.672,1.5,1.5V73.807z M37.482,74.465V63.416h5v11.053 c-0.818,0.072-1.646,0.115-2.482,0.115C39.151,74.584,38.312,74.541,37.482,74.465z M49.482,72.92c-0.976,0.354-1.978,0.65-3,0.895 v-1.955c0-0.828,0.673-1.5,1.5-1.5s1.5,0.672,1.5,1.5V72.92z M58.482,67.541c-1.526,1.359-3.202,2.551-5,3.551v-0.016v-7.66h5 V67.541z M59.482,66.609v-3.693c0-0.277-0.224-0.5-0.5-0.5h-6c-0.276,0-0.5,0.223-0.5,0.5v8.703c-0.652,0.328-1.319,0.633-2,0.91 v-0.67c0-1.379-1.121-2.5-2.5-2.5c-1.378,0-2.5,1.121-2.5,2.5v2.18c-0.658,0.133-1.326,0.236-2,0.32V62.916 c0-0.277-0.224-0.5-0.5-0.5h-6c-0.276,0-0.5,0.223-0.5,0.5v11.439c-0.674-0.086-1.342-0.189-2-0.322v-2.174 c0-1.379-1.121-2.5-2.5-2.5c-1.378,0-2.5,1.121-2.5,2.5v0.656c-0.681-0.279-1.347-0.584-2-0.914v-8.686c0-0.277-0.224-0.5-0.5-0.5 h-6c-0.276,0-0.5,0.223-0.5,0.5v3.66c-1.847-1.818-3.438-3.891-4.724-6.16h48.482C62.948,62.699,61.344,64.783,59.482,66.609zM39.965,38.359c-1.93,0-3.5,1.57-3.5,3.5c0,1.93,1.57,3.5,3.5,3.5c1.931,0,3.5-1.57,3.5-3.5 C43.465,39.929,41.896,38.359,39.965,38.359z M39.965,44.359c-1.378,0-2.5-1.121-2.5-2.5c0-1.379,1.122-2.5,2.5-2.5 c1.379,0,2.5,1.121,2.5,2.5C42.465,43.238,41.344,44.359,39.965,44.359zM49.982,62.416h-4c-0.276,0-0.5,0.223-0.5,0.5v4c0,0.275,0.224,0.5,0.5,0.5h4c0.276,0,0.5-0.225,0.5-0.5v-4 C50.482,62.639,50.259,62.416,49.982,62.416z M49.482,66.416h-3v-3h3V66.416zM33.982,62.416h-4c-0.276,0-0.5,0.223-0.5,0.5v4c0,0.275,0.224,0.5,0.5,0.5h4c0.276,0,0.5-0.225,0.5-0.5v-4 C34.482,62.639,34.259,62.416,33.982,62.416z M33.482,66.416h-3v-3h3V66.416z" ></path> </svg>