<?xml version="1.0" encoding="utf-8"?> <!-- Generator: IcoMoon.io --> <!DOCTYPE svg PUBLIC "-//W3C//DTD SVG 1.1//EN" "http://www.w3.org/Graphics/SVG/1.1/DTD/svg11.dtd"> <svg version="1.1" id="Layer_1" xmlns="http://www.w3.org/2000/svg" xmlns:xlink="http://www.w3.org/1999/xlink" x="0px" y="0px" width="80px" height="80px" viewBox="0 0 80 80" enable-background="new 0 0 80 80" xml:space="preserve" fill="#423e3b"> <path d="M51.755,20.024C47.002,9.425,40.341,4.942,40.237,4.876c-0.166-0.107-0.379-0.107-0.545,0 c-0.167,0.107-4.134,2.725-8.146,8.84c-1.131,1.725-2.325,3.844-3.439,6.367c-9.989,4.539-16.954,14.608-16.954,26.276 c0,15.906,12.94,28.846,28.846,28.846c15.906,0,28.847-12.939,28.847-28.846C68.846,34.638,61.816,24.534,51.755,20.024z M67.846,46.359c0,5.031-1.348,9.75-3.691,13.828h-2.672v-7.5c0-0.275-0.225-0.5-0.5-0.5h-2.5v-5.375l1.898-2.848 c0.003-0.004,0.004-0.008,0.007-0.014c0.003-0.004,0.007-0.008,0.01-0.014c0.01-0.016,0.015-0.033,0.021-0.051 c0.009-0.02,0.018-0.037,0.023-0.057c0.007-0.023,0.009-0.045,0.013-0.068c0.003-0.021,0.008-0.041,0.008-0.061 c0.001-0.025-0.003-0.047-0.006-0.07c-0.002-0.021-0.003-0.041-0.008-0.061c-0.006-0.023-0.017-0.047-0.026-0.07 c-0.006-0.016-0.009-0.033-0.018-0.047c-0.001-0.004-0.003-0.004-0.005-0.008c-0.001-0.002-0.001-0.004-0.003-0.008 c-0.309-0.533-0.645-1.059-0.996-1.576c-0.354-5.971-2.408-10.809-5.061-14.628c-0.58-2.104-1.256-4.037-1.987-5.816 C61.524,25.978,67.846,35.441,67.846,46.359z M20.728,66.432c0.511-0.311,0.975-0.762,1.274-1.268 c0.613,1.016,1.728,1.695,2.998,1.695c1.271,0,2.387-0.682,3-1.699c0.613,1.018,1.729,1.699,3,1.699s2.387-0.682,3-1.699 c0.613,1.018,1.729,1.699,3,1.699s2.387-0.682,3-1.697c0.612,1.018,1.728,1.699,2.999,1.699s2.386-0.68,2.999-1.695 c0.613,1.02,1.729,1.701,3.001,1.701c1.269,0,2.382-0.676,2.996-1.686c0.612,1.025,1.729,1.713,3.003,1.713 c1.267,0,2.378-0.668,2.992-1.668c0.291,0.496,0.74,0.939,1.232,1.25c-5.002,4.783-11.773,7.729-19.224,7.729 C32.525,74.205,25.734,71.24,20.728,66.432z M59.962,65.744c-0.874-0.418-1.465-1.326-1.465-2.312c0-0.277-0.224-0.5-0.5-0.5 s-0.5,0.223-0.5,0.5c0,1.381-1.098,2.463-2.499,2.463c-1.378,0-2.499-1.129-2.499-2.518c0-0.275-0.224-0.5-0.5-0.5 s-0.5,0.225-0.5,0.5c0,1.373-1.121,2.49-2.5,2.49c-1.378,0-2.499-1.123-2.499-2.504c0-0.275-0.225-0.5-0.5-0.5 c-0.276,0-0.5,0.225-0.5,0.5c0,1.377-1.122,2.498-2.501,2.498c-1.378,0-2.499-1.123-2.499-2.502c0-0.275-0.225-0.5-0.5-0.5 c-0.276,0-0.5,0.225-0.5,0.5c0,1.379-1.122,2.5-2.5,2.5c-1.379,0-2.5-1.121-2.5-2.5c0-0.277-0.225-0.5-0.5-0.5 c-0.276,0-0.5,0.223-0.5,0.5c0,1.379-1.122,2.5-2.5,2.5c-1.379,0-2.5-1.121-2.5-2.5c0-0.277-0.225-0.5-0.5-0.5 c-0.276,0-0.5,0.223-0.5,0.5c0,1.379-1.122,2.5-2.5,2.5c-1.379,0-2.5-1.121-2.5-2.5c0-0.277-0.225-0.5-0.5-0.5 c-0.276,0-0.5,0.223-0.5,0.5c0,1.01-0.613,1.924-1.518,2.328c-1.326-1.373-2.512-2.879-3.535-4.5h47.104 C62.514,62.83,61.311,64.357,59.962,65.744z M19.482,60.188v-7h2v7H19.482z M39.965,16.495c1.84,0.822,16.421,7.85,18.289,23.792 c-0.609-0.783-1.256-1.541-1.933-2.275c-0.956-3.689-2.522-6.996-4.694-9.911l0.007-0.012l-0.028-0.016 c-2.805-3.748-6.604-6.848-11.406-9.26c-0.143-0.072-0.311-0.072-0.452,0c-8.529,4.354-13.923,10.795-16.121,19.18 c-0.688,0.742-1.343,1.512-1.96,2.305C23.524,24.345,38.124,17.317,39.965,16.495z M32.874,19.677 c1.655-3.439,3.811-6.678,6.608-9.4v5.34C38.623,16.007,35.955,17.31,32.874,19.677z M40.482,15.632v-5.359 c2.002,1.947,4.445,4.965,6.604,9.426C44.029,17.345,41.377,16.04,40.482,15.632z M47.239,24.772 c1.173,1.062,2.237,2.199,3.187,3.408l-1.789,3.098c-1.314-0.959-2.57-1.805-3.696-2.526L47.239,24.772z M44.094,28.22 c-1.728-1.07-3.044-1.787-3.611-2.088v-6.039c2.227,1.18,4.229,2.512,5.992,4.002L44.094,28.22z M51.078,29.05 c1.623,2.25,2.887,4.733,3.776,7.45c-1.751-1.717-3.615-3.268-5.409-4.619L51.078,29.05z M29.531,28.228 c0.95-1.209,2.012-2.346,3.184-3.412l2.273,3.938c-1.126,0.721-2.382,1.566-3.695,2.526L29.531,28.228z M30.484,31.88 c-1.777,1.34-3.625,2.875-5.361,4.572c0.892-2.674,2.144-5.129,3.754-7.358L30.484,31.88z M33.479,24.138 c1.769-1.502,3.771-2.85,6.004-4.047v6.021c-0.549,0.291-1.886,1.016-3.646,2.107L33.479,24.138z M39.965,26.991 c1.791,0.953,13.643,7.497,19.114,16.196h-2.881c-4.173-7.325-10.944-10.997-14.604-12.978c-0.542-0.293-1.008-0.545-1.377-0.764 c-0.156-0.092-0.351-0.092-0.508,0c-0.365,0.217-0.828,0.467-1.365,0.756c-3.661,1.981-10.436,5.653-14.614,12.985h-2.88 C26.319,34.49,38.175,27.944,39.965,26.991z M57.697,46.188H56.41l-2.858-2h5.479L57.697,46.188z M58.482,53.188h2v7h-2V53.188z M55.482,52.188v-2.5c0-0.275-0.225-0.5-0.5-0.5h-30c-0.276,0-0.5,0.225-0.5,0.5v2.5h-2v-5h35v5H55.482z M57.482,53.188v7h-2v-7 H57.482z M25.482,52.188v-2h29v2H25.482z M54.482,53.188v7h-2v-7H54.482z M51.482,53.188v7h-2v-7H51.482z M48.482,53.188v7h-2v-7 H48.482z M45.482,53.188v7h-2v-7H45.482z M42.482,53.188v7h-2v-7H42.482z M39.482,53.188v7h-2v-7H39.482z M36.482,53.188v7h-2v-7 H36.482z M33.482,53.188v7h-2v-7H33.482z M30.482,53.188v7h-2v-7H30.482z M27.482,53.188v7h-2v-7H27.482z M24.482,53.188v7h-2v-7 H24.482z M28.14,44.188h2.864l-1.444,2h-4.28L28.14,44.188z M27.482,43.188H24.88c0.791-1.318,1.673-2.506,2.603-3.586V43.188z M35.266,44.188l-0.736,2h-3.735l1.444-2H35.266z M32.482,43.188v-8.19c1.033-0.768,2.047-1.436,3-2.02v10.209H32.482z M31.482,43.188h-3v-4.684c0.977-1.02,1.988-1.926,3-2.734V43.188z M39.482,44.188v2h-3.888l0.736-2H39.482z M36.482,43.188V32.382 c0.863-0.5,1.656-0.932,2.338-1.299c0.236-0.129,0.455-0.249,0.662-0.362v12.466H36.482z M43.627,44.188l0.694,2h-3.839v-2H43.627z M40.482,43.188V30.745c0.198,0.107,0.41,0.223,0.635,0.344c0.688,0.373,1.492,0.809,2.365,1.316v10.782H40.482z M51.482,43.188h-3 V35.8c1.012,0.811,2.023,1.719,3,2.742V43.188z M51.807,44.188l2.859,2h-4.301l-1.416-2H51.807z M49.141,46.188H45.38l-0.694-2 h3.038L49.141,46.188z M47.482,43.188h-3V33.003c0.953,0.584,1.967,1.256,3,2.023V43.188z M52.482,43.188v-3.543 c0.916,1.068,1.783,2.245,2.563,3.543H52.482z M26.395,44.188l-2.86,2h-1.302l-1.334-2H26.395z M39.966,5.907 c0.962,0.701,4.306,3.35,7.612,8.406c1.707,2.611,3.562,6.156,5.047,10.672c-1.222-1.459-2.509-2.734-3.774-3.84 c-1.94-4.607-4.679-8.979-8.545-12.402c-0.189-0.168-0.476-0.168-0.665,0.002c-3.841,3.438-6.569,7.785-8.509,12.355 c-1.281,1.113-2.584,2.4-3.821,3.877C31.366,12.751,38.488,6.993,39.966,5.907z M27.518,21.479c-0.708,1.75-1.371,3.672-1.947,5.781 c-2.644,3.813-4.689,8.643-5.043,14.601c-0.352,0.518-0.688,1.043-0.996,1.576c-0.001,0.004-0.002,0.006-0.003,0.008 c-0.001,0.004-0.003,0.004-0.005,0.008c-0.008,0.014-0.011,0.031-0.018,0.047c-0.01,0.023-0.02,0.047-0.025,0.07 c-0.006,0.02-0.006,0.039-0.008,0.061c-0.003,0.023-0.007,0.045-0.006,0.07c0,0.02,0.004,0.039,0.008,0.061 c0.003,0.023,0.006,0.045,0.012,0.068c0.006,0.02,0.016,0.037,0.023,0.057c0.008,0.018,0.012,0.035,0.021,0.051 c0.003,0.006,0.008,0.01,0.011,0.014c0.003,0.006,0.004,0.01,0.007,0.014l1.934,2.9v5.322h-2.5c-0.276,0-0.5,0.225-0.5,0.5v7.5 h-2.637c-2.345-4.078-3.692-8.797-3.692-13.828C12.153,35.49,18.416,26.063,27.518,21.479z" ></path></svg>