<?xml version="1.0" encoding="utf-8"?> <!-- Generator: IcoMoon.io --> <!DOCTYPE svg PUBLIC "-//W3C//DTD SVG 1.1//EN" "http://www.w3.org/Graphics/SVG/1.1/DTD/svg11.dtd"> <svg version="1.1" id="Layer_1" xmlns="http://www.w3.org/2000/svg" xmlns:xlink="http://www.w3.org/1999/xlink" x="0px" y="0px" width="80px" height="80px" viewBox="0 0 80 80" enable-background="new 0 0 80 80" xml:space="preserve" fill="#423e3b"> <path d="M50.35,19.818c0.69-0.789,1.125-1.799,1.134-2.873c0.005-0.029,0-2.029,0-2.029c0-0.277-0.225-0.5-0.5-0.5 c-0.276,0-0.5,0.223-0.5,0.5v1.346c-3.888-0.723-8.834-2.252-9.821-3.846h1.321c0.275,0,0.5-0.225,0.5-0.5 c0-0.277-0.225-0.5-0.5-0.5h-1.5v-2h1.5c0.275,0,0.5-0.225,0.5-0.5c0-0.277-0.225-0.5-0.5-0.5h-1.5v-3.5c0-0.277-0.225-0.5-0.5-0.5 c-0.276,0-0.5,0.223-0.5,0.5v3.5h-1.5c-0.276,0-0.5,0.223-0.5,0.5c0,0.275,0.224,0.5,0.5,0.5h1.5v2h-1.5c-0.276,0-0.5,0.223-0.5,0.5 c0,0.275,0.224,0.5,0.5,0.5h1.32c-0.987,1.594-5.934,3.121-9.82,3.846v-1.346c0-0.277-0.225-0.5-0.5-0.5c-0.276,0-0.5,0.223-0.5,0.5 c0,0,0,1.969,0,2c0,1.09,0.435,2.117,1.131,2.916c-10.788,4.178-18.46,14.66-18.46,26.906c0,15.906,12.94,28.846,28.846,28.846 c15.906,0,28.846-12.939,28.846-28.846C68.846,34.479,61.156,23.988,50.35,19.818z M67.846,46.738 c0,6.705-2.382,12.865-6.346,17.678h-1.017v-3.111c1.13-0.24,1.982-1.244,1.982-2.445c0-1.379-1.122-2.5-2.5-2.5 c-1.379,0-2.5,1.121-2.5,2.5c0,1.213,0.869,2.225,2.018,2.451v3.105h-4v-3.5c0-0.277-0.225-0.5-0.5-0.5h-4.5v-3h2.482 c2.356,0,4.448-2.035,4.518-4.381c0.01-0.039,0-2.119,0-2.119c0-0.277-0.225-0.5-0.5-0.5c-0.276,0-0.5,0.223-0.5,0.5v1.5h-4v-3.5 c0-0.277-0.225-0.5-0.5-0.5h-2.5v-3h1.482c2.356,0,4.448-2.035,4.518-4.381c0.01-0.039,0-2.119,0-2.119c0-0.277-0.225-0.5-0.5-0.5 c-0.276,0-0.5,0.223-0.5,0.5v1.5h-5v-3.5c0-0.277-0.225-0.5-0.5-0.5h-1.5v-3h1.482c2.356,0,4.448-2.035,4.518-4.381 c0.01-0.039,0-2.119,0-2.119c0-0.277-0.225-0.5-0.5-0.5c-0.276,0-0.5,0.223-0.5,0.5v1.5h-6v-3.5c0-0.277-0.225-0.5-0.5-0.5h-1.5v-3 h2.482c0.924,0,1.806-0.316,2.542-0.838C60.192,24.475,67.846,34.723,67.846,46.738z M59.966,60.359c-0.827,0-1.5-0.674-1.5-1.5 c0-0.828,0.673-1.5,1.5-1.5s1.5,0.672,1.5,1.5C61.466,59.686,60.793,60.359,59.966,60.359z M54.483,61.416v3h-2v-3H54.483z M43.483,60.416v-3h6v3H43.483z M48.483,61.416v3h-2v-3H48.483z M37.483,60.416v-3h5v3H37.483z M42.483,61.416v3h-2v-3H42.483z M39.483,61.416v3h-2v-3H39.483z M26.966,56.416c-1.803,0-3.195-1.496-3.456-3h32.912c-0.261,1.504-1.653,3-3.456,3H26.966z M29.483,60.416v-3h7v3H29.483z M36.483,61.416v3h-2v-3H36.483z M33.483,61.416v3h-2v-3H33.483z M30.483,61.416v3h-2v-3H30.483z M52.422,29.416c-0.261,1.504-1.653,3-3.456,3h-18c-1.803,0-3.195-1.496-3.456-3H52.422z M34.483,28.416v-3h2v3H34.483z M43.483,24.416h-7v-3h7V24.416z M45.483,25.416v3h-2v-3H45.483z M42.483,25.416v3h-2v-3H42.483z M39.483,25.416v3h-2v-3H39.483z M46.483,36.416h-3v-3h3V36.416z M48.483,37.416v3h-2v-3H48.483z M45.483,37.416v3h-2v-3H45.483z M37.483,36.416v-3h5v3H37.483z M42.483,37.416v3h-2v-3H42.483z M39.483,37.416v3h-2v-3H39.483z M33.483,36.416v-3h3v3H33.483z M36.483,37.416v3h-2v-3H36.483z M54.422,41.416c-0.261,1.504-1.653,3-3.456,3h-22c-1.803,0-3.195-1.496-3.456-3H54.422z M31.483,40.416v-3h2v3H31.483z M49.483,49.416h2v3h-2V49.416z M43.483,48.416v-3h5v3H43.483z M48.483,49.416v3h-2v-3H48.483z M45.483,49.416v3h-2v-3H45.483z M37.483,48.416v-3h5v3H37.483z M42.483,49.416v3h-2v-3H42.483z M39.483,49.416v3h-2v-3H39.483z M30.483,48.416v-3h6v3H30.483z M36.483,49.416v3h-2v-3H36.483z M33.483,49.416v3h-2v-3H33.483z M28.483,52.416v-3h2v3H28.483z M43.483,61.416h2v3h-2V61.416z M49.483,61.416h2v3h-2V61.416z M34.632,16.01c2.779-0.867,4.55-1.799,5.352-2.822c0.801,1.023,2.572,1.955,5.351,2.822 c0.471,0.146,0.94,0.281,1.399,0.406h-13.5C33.691,16.291,34.162,16.156,34.632,16.01z M50.422,17.416c-0.261,1.504-1.653,3-3.456,3 h-14c-1.803,0-3.195-1.496-3.456-3H50.422z M30.453,20.594c0.727,0.514,1.596,0.822,2.513,0.822h2.518v3h-1.5 c-0.276,0-0.5,0.223-0.5,0.5v3.5h-6v-1.5c0-0.277-0.225-0.5-0.5-0.5c-0.276,0-0.5,0.223-0.5,0.5c0,0,0,1.969,0,2 c0,2.396,2.085,4.5,4.482,4.5h1.518v3h-1.5c-0.276,0-0.5,0.223-0.5,0.5v3.5h-5v-1.5c0-0.277-0.225-0.5-0.5-0.5 c-0.276,0-0.5,0.223-0.5,0.5c0,0,0,1.969,0,2c0,2.396,2.085,4.5,4.482,4.5h0.518v3h-1.5c-0.276,0-0.5,0.223-0.5,0.5v3.5h-4v-1.5 c0-0.277-0.225-0.5-0.5-0.5c-0.276,0-0.5,0.223-0.5,0.5c0,0,0,1.969,0,2c0,2.396,2.085,4.5,4.482,4.5h1.518v3h-3.5 c-0.276,0-0.5,0.223-0.5,0.5v3.5h-4v-3.111c1.13-0.24,1.982-1.244,1.982-2.445c0-1.379-1.122-2.5-2.5-2.5 c-1.379,0-2.5,1.121-2.5,2.5c0,1.213,0.869,2.225,2.018,2.451v3.105h-0.982c-3.964-4.812-6.347-10.973-6.347-17.678 C12.154,34.738,19.79,24.5,30.453,20.594z M27.483,61.416v3h-2v-3H27.483z M19.966,60.359c-0.827,0-1.5-0.674-1.5-1.5 c0-0.828,0.673-1.5,1.5-1.5s1.5,0.672,1.5,1.5C21.466,59.686,20.793,60.359,19.966,60.359z M33.483,73.807 c-0.677-0.162-1.344-0.348-2-0.559v-3.832h2V73.807z M30.483,72.908c-0.681-0.248-1.346-0.529-2-0.826v-2.666h2V72.908z M27.483,71.602c-1.263-0.639-2.47-1.369-3.613-2.186h3.613V71.602z M34.483,74.033v-1.617h11v1.623 c-1.773,0.355-3.606,0.545-5.483,0.545C38.111,74.584,36.267,74.395,34.483,74.033z M51.483,72.098c-0.655,0.297-1.32,0.574-2,0.822 v-3.504h2V72.098z M48.483,73.26c-0.656,0.209-1.324,0.393-2,0.555v-4.398h2V73.26z M45.483,71.416h-11v-2h11V71.416z M52.483,71.619v-2.203h3.646C54.977,70.238,53.758,70.977,52.483,71.619z M57.451,68.416H22.549c-1.137-0.918-2.203-1.918-3.184-3 h41.27C59.655,66.498,58.589,67.498,57.451,68.416z" ></path></svg>