<?xml version="1.0" encoding="utf-8"?> <!-- Generator: IcoMoon.io --> <!DOCTYPE svg PUBLIC "-//W3C//DTD SVG 1.1//EN" "http://www.w3.org/Graphics/SVG/1.1/DTD/svg11.dtd"> <svg version="1.1" id="Layer_1" xmlns="http://www.w3.org/2000/svg" xmlns:xlink="http://www.w3.org/1999/xlink" x="0px" y="0px" width="80px" height="80px" viewBox="0 0 80 80" enable-background="new 0 0 80 80" xml:space="preserve" fill="#423e3b"> <path d="M48.104,19.064l-0.649-3.246c-0.047-0.234-0.252-0.402-0.49-0.402h-6.482v-6h3.673l-1.638,3.275 c-0.078,0.156-0.069,0.34,0.021,0.486c0.092,0.148,0.252,0.238,0.426,0.238h5c0.189,0,0.362-0.107,0.447-0.277l2-4 c0.077-0.154,0.068-0.338-0.022-0.486c-0.091-0.146-0.252-0.236-0.425-0.236h-4.191l1.639-3.277 c0.077-0.154,0.068-0.338-0.022-0.486c-0.091-0.146-0.252-0.236-0.425-0.236h-6.982c-0.276,0-0.5,0.223-0.5,0.5v4v6.5h-6.518 c-0.238,0-0.443,0.168-0.49,0.402l-0.654,3.27c-11.933,3.535-20.667,14.586-20.667,27.65c0,15.906,12.94,28.846,28.846,28.846 c15.906,0,28.847-12.939,28.847-28.846C68.846,33.646,60.075,22.576,48.104,19.064z M49.155,9.416l-1.5,3h-3.882l1.5-3H49.155z M40.482,5.416h5.673l-1.5,3h-4.173V5.416z M67.846,46.738c0,2.301-0.285,4.537-0.814,6.678h-2.549v-6.5c0-0.277-0.225-0.5-0.5-0.5 h-2.5v-6.5c0-0.277-0.225-0.5-0.5-0.5h-2.5v-6.5c0-0.277-0.225-0.5-0.5-0.5h-1.5v-4.5c0-0.146-0.055-0.242-0.165-0.365l-4.187-5.863 C61.423,26.203,67.846,35.732,67.846,46.738z M57.482,68.391c-2.378,1.924-5.074,3.467-8,4.529V54.416h2v3.5 c0,0.275,0.224,0.5,0.5,0.5c0.275,0,0.5-0.225,0.5-0.5v-3.5h2v3.5c0,0.275,0.224,0.5,0.5,0.5c0.275,0,0.5-0.225,0.5-0.5v-3.5h2 V68.391z M24.982,58.416c0.275,0,0.5-0.225,0.5-0.5v-3.5h2v3.5c0,0.275,0.224,0.5,0.5,0.5c0.275,0,0.5-0.225,0.5-0.5v-3.5h2v18.492 c-2.928-1.068-5.624-2.615-8-4.545V54.416h2v3.5C24.482,58.191,24.706,58.416,24.982,58.416z M33.982,58.416 c0.275,0,0.5-0.225,0.5-0.5v-3.5h2v3.5c0,0.275,0.224,0.5,0.5,0.5c0.275,0,0.5-0.225,0.5-0.5v-3.5h2v20.156 c-2.785-0.053-5.471-0.51-8-1.324V54.416h2v3.5C33.482,58.191,33.706,58.416,33.982,58.416z M42.982,58.416 c0.275,0,0.5-0.225,0.5-0.5v-3.5h2v3.5c0,0.275,0.224,0.5,0.5,0.5c0.275,0,0.5-0.225,0.5-0.5v-3.5h2V73.26 c-2.53,0.811-5.216,1.266-8,1.312V54.416h2v3.5C42.482,58.191,42.706,58.416,42.982,58.416z M16.482,53.416v-6h2v3.5 c0,0.275,0.224,0.5,0.5,0.5c0.275,0,0.5-0.225,0.5-0.5v-3.5h2v3.5c0,0.275,0.224,0.5,0.5,0.5c0.275,0,0.5-0.225,0.5-0.5v-3.5h2v3.5 c0,0.275,0.224,0.5,0.5,0.5c0.275,0,0.5-0.225,0.5-0.5v-3.5h2v3.5c0,0.275,0.224,0.5,0.5,0.5c0.275,0,0.5-0.225,0.5-0.5v-3.5h2v3.5 c0,0.275,0.224,0.5,0.5,0.5c0.275,0,0.5-0.225,0.5-0.5v-3.5h2v3.5c0,0.275,0.224,0.5,0.5,0.5c0.275,0,0.5-0.225,0.5-0.5v-3.5h2v3.5 c0,0.275,0.224,0.5,0.5,0.5c0.275,0,0.5-0.225,0.5-0.5v-3.5h2v3.5c0,0.275,0.224,0.5,0.5,0.5c0.275,0,0.5-0.225,0.5-0.5v-3.5h2v3.5 c0,0.275,0.224,0.5,0.5,0.5c0.275,0,0.5-0.225,0.5-0.5v-3.5h2v3.5c0,0.275,0.224,0.5,0.5,0.5c0.275,0,0.5-0.225,0.5-0.5v-3.5h2v3.5 c0,0.275,0.224,0.5,0.5,0.5c0.275,0,0.5-0.225,0.5-0.5v-3.5h2v3.5c0,0.275,0.224,0.5,0.5,0.5c0.275,0,0.5-0.225,0.5-0.5v-3.5h2v3.5 c0,0.275,0.224,0.5,0.5,0.5c0.275,0,0.5-0.225,0.5-0.5v-3.5h2v3.5c0,0.275,0.224,0.5,0.5,0.5c0.275,0,0.5-0.225,0.5-0.5v-3.5h2v3.5 c0,0.275,0.224,0.5,0.5,0.5c0.275,0,0.5-0.225,0.5-0.5v-3.5h2v6H16.482z M21.982,44.416c0.275,0,0.5-0.225,0.5-0.5v-3.5h2v3.5 c0,0.275,0.224,0.5,0.5,0.5c0.275,0,0.5-0.225,0.5-0.5v-3.5h2v3.5c0,0.275,0.224,0.5,0.5,0.5c0.275,0,0.5-0.225,0.5-0.5v-3.5h2v3.5 c0,0.275,0.224,0.5,0.5,0.5c0.275,0,0.5-0.225,0.5-0.5v-3.5h2v3.5c0,0.275,0.224,0.5,0.5,0.5c0.275,0,0.5-0.225,0.5-0.5v-3.5h2v3.5 c0,0.275,0.224,0.5,0.5,0.5c0.275,0,0.5-0.225,0.5-0.5v-3.5h2v3.5c0,0.275,0.224,0.5,0.5,0.5c0.275,0,0.5-0.225,0.5-0.5v-3.5h2v3.5 c0,0.275,0.224,0.5,0.5,0.5c0.275,0,0.5-0.225,0.5-0.5v-3.5h2v3.5c0,0.275,0.224,0.5,0.5,0.5c0.275,0,0.5-0.225,0.5-0.5v-3.5h2v3.5 c0,0.275,0.224,0.5,0.5,0.5c0.275,0,0.5-0.225,0.5-0.5v-3.5h2v3.5c0,0.275,0.224,0.5,0.5,0.5c0.275,0,0.5-0.225,0.5-0.5v-3.5h2v3.5 c0,0.275,0.224,0.5,0.5,0.5c0.275,0,0.5-0.225,0.5-0.5v-3.5h2v3.5c0,0.275,0.224,0.5,0.5,0.5c0.275,0,0.5-0.225,0.5-0.5v-3.5h2v6 h-41v-6h2v3.5C21.482,44.191,21.706,44.416,21.982,44.416z M24.982,37.416c0.275,0,0.5-0.225,0.5-0.5v-3.5h2v3.5 c0,0.275,0.224,0.5,0.5,0.5c0.275,0,0.5-0.225,0.5-0.5v-3.5h2v3.5c0,0.275,0.224,0.5,0.5,0.5c0.275,0,0.5-0.225,0.5-0.5v-3.5h2v3.5 c0,0.275,0.224,0.5,0.5,0.5c0.275,0,0.5-0.225,0.5-0.5v-3.5h2v3.5c0,0.275,0.224,0.5,0.5,0.5c0.275,0,0.5-0.225,0.5-0.5v-3.5h2v3.5 c0,0.275,0.224,0.5,0.5,0.5c0.275,0,0.5-0.225,0.5-0.5v-3.5h2v3.5c0,0.275,0.224,0.5,0.5,0.5c0.275,0,0.5-0.225,0.5-0.5v-3.5h2v3.5 c0,0.275,0.224,0.5,0.5,0.5c0.275,0,0.5-0.225,0.5-0.5v-3.5h2v3.5c0,0.275,0.224,0.5,0.5,0.5c0.275,0,0.5-0.225,0.5-0.5v-3.5h2v3.5 c0,0.275,0.224,0.5,0.5,0.5c0.275,0,0.5-0.225,0.5-0.5v-3.5h2v3.5c0,0.275,0.224,0.5,0.5,0.5c0.275,0,0.5-0.225,0.5-0.5v-3.5h0.5 h1.5v6h-35v-6h1.5h0.5v3.5C24.482,37.191,24.706,37.416,24.982,37.416z M24.482,32.416v-4h3v4H24.482z M28.482,32.416v-4h7v4H28.482 z M43.482,28.416v4h-7v-4H43.482z M37.482,27.416v-6h2v6H37.482z M40.482,27.416v-6h2v6H40.482z M44.482,32.416v-4h7v4H44.482z M52.482,32.416v-4h3v4H52.482z M49.055,20.416h-0.68l-0.048-0.238C48.57,20.256,48.814,20.332,49.055,20.416z M50.707,21.416 l4.286,6H43.482v-6H50.707z M33.375,16.416h13.18l0.8,4h-3.872v-1.5c0-0.277-0.225-0.5-0.5-0.5c-0.276,0-0.5,0.223-0.5,0.5v1.5h-2 v-1.5c0-0.277-0.225-0.5-0.5-0.5c-0.276,0-0.5,0.223-0.5,0.5v1.5h-2v-1.5c0-0.277-0.225-0.5-0.5-0.5c-0.276,0-0.5,0.223-0.5,0.5v1.5 h-3.908L33.375,16.416z M36.482,21.416v6H24.937l4.285-6H36.482z M31.555,20.416h-0.615c0.218-0.076,0.438-0.145,0.658-0.215 L31.555,20.416z M27.761,21.74l-4.203,5.885c-0.086,0.121-0.075,0.205-0.075,0.412v4.379h-1.5c-0.276,0-0.5,0.223-0.5,0.5v6.5h-2.5 c-0.276,0-0.5,0.223-0.5,0.5v6.5h-2.5c-0.276,0-0.5,0.223-0.5,0.5v6.5h-2.515c-0.528-2.141-0.814-4.377-0.814-6.678 C12.153,35.773,18.527,26.277,27.761,21.74z M13.238,54.416h2.244v3.5c0,0.275,0.224,0.5,0.5,0.5c0.275,0,0.5-0.225,0.5-0.5v-3.5h2 v3.5c0,0.275,0.224,0.5,0.5,0.5c0.275,0,0.5-0.225,0.5-0.5v-3.5h2v13.096C17.609,64.057,14.709,59.535,13.238,54.416z M58.482,67.541V54.416h2v3.5c0,0.275,0.224,0.5,0.5,0.5c0.275,0,0.5-0.225,0.5-0.5v-3.5h2v3.5c0,0.275,0.224,0.5,0.5,0.5 c0.275,0,0.5-0.225,0.5-0.5v-3.5h2.278C65.285,59.551,62.372,64.082,58.482,67.541z" ></path></svg>